<svg id="Layer_1" data-name="Layer 1" xmlns="http://www.w3.org/2000/svg" xmlns:xlink="http://www.w3.org/1999/xlink" viewBox="0 0 652.68 473.24"><defs><clipPath id="clip-path" transform="translate(-57.67 -18.1)"/></defs><title>chef</title><g clip-path="url(#clip-path)"><path d="M690.56,477.44c0,7.68-134,13.9-299.39,13.9s-299.4-6.22-299.4-13.9,134-13.89,299.4-13.89,299.39,6.22,299.39,13.89" transform="translate(-57.67 -18.1)" fill="#ededed"/><path d="M88.9,302.89a73.24,73.24,0,0,1-5.45-4.95,66.69,66.69,0,0,1-21-33.68,71.75,71.75,0,0,1-1.7-8.74c-4.29-18.68-3.59-38.23-.79-57.1A241,241,0,0,1,73.48,147,220.71,220.71,0,0,1,98.27,100.2a191.19,191.19,0,0,1,35.64-38.69A166.54,166.54,0,0,1,231.53,24a147.15,147.15,0,0,1,51.77,6.73A127.13,127.13,0,0,1,307.36,41.3c7.49,4.29,14.57,9.57,20,16.31a38.63,38.63,0,0,1,9,23.56c.15,8.9-2.91,17.56-7.5,25.09C318.65,123.08,301.6,133.1,285.8,144a134.55,134.55,0,0,0-22.86,19.19,148.33,148.33,0,0,0-17.35,23.29c-10.5,17.11-18.38,35.61-27.32,53.54-8.71,17.47-18.61,34.69-32.49,48.62a96.5,96.5,0,0,1-27.37,19.62,58.87,58.87,0,0,1-21.56,8.1c-17.27,2.83-34.51-2.49-47.95-13.48" transform="translate(-57.67 -18.1)" fill="#ffe8a6"/><path d="M348.11,285c-5.26-8-8.38-17.16-7.86-26.79.51-9.43,4.29-18.34,9.46-26.14,1-1.51,2.06-2.94,3.15-4.35,4.35-7.4,10.38-13.63,17-19.08,14.72-12.16,32.31-20.71,45.28-35,6.33-7,11.35-15.23,13-24.61s-.13-19-2.33-28.13c-4.13-17.14-11.1-36.77-.95-53.2,4.7-7.6,12.09-13.22,20.3-16.59,10-4.08,21-4.68,31.64-3.65,18.75,1.83,37.19,8.09,53.62,17.22a150.86,150.86,0,0,1,41.85,34.35,141.48,141.48,0,0,1,27.29,49.87,150.14,150.14,0,0,1,5.62,59.93,143.43,143.43,0,0,1-18.23,56.4,149.34,149.34,0,0,1-83.35,66.79,142.71,142.71,0,0,1-56.16,5.87,150.35,150.35,0,0,1-55.07-16.15,144.67,144.67,0,0,1-24.06-15.65c-7.56-6.09-14.79-13-20.15-21.11" transform="translate(-57.67 -18.1)" fill="#ffe8a6"/><path d="M709.79,249A98.14,98.14,0,0,1,692,296.42C681.38,311,665.35,324,646.76,325.57c-15.09,1.29-31.37-6.06-37.69-20.05-.17-.3-.35-.59-.51-.88-4.68-8.42-5.42-18.05-3.53-27.4,2.19-10.82,7.24-20.83,11.87-30.76l15-32.15,7.49-16.08c2-4.32,4-8.68,6.31-12.84,3.94-7,9.37-14,17.43-16.21,8.84-2.45,17.51,1.62,24,7.51s11.31,13.81,14.93,21.9A99,99,0,0,1,709.79,249" transform="translate(-57.67 -18.1)" fill="#ffe8a6"/><path d="M666.94,164.64s.81,33.66-13.6,58.83c-3.4,5.94-7.24,8.78-11.26,9.2l4.85,59.6-29.7-1L567,289.52l-3.39-.12c.26-16.57,13-84.33,13-84.33l-1.09-35.14-.95-10.78-4.55-11.51s-61.77-40.42-46-49.64,58-7.88,58-7.88v18.52l-16.83,2.69L590,122.82l3.07.51,16.24,2.7,4.29-4.42a14.63,14.63,0,0,0,.55,6.32h0c1.08,3.65,3.73,8.28,10.12,12.16l-3.13,11.45,6.69,1.1,2-12.93,10.41-4.2,2.7-1.09,2.43,3.9s29.67,19.84,19.43,21.16c0,0,5.52,3.08,2.15,5.15" transform="translate(-57.67 -18.1)" fill="#fff"/><path d="M618.24,211.68c-.22-.29-.43-.59-.63-.89q-3.65,23.94-7,47.92-2,14.49-3.93,29c-.33,2.54,3.6,3.27,3.94.72q3.38-25.71,7.11-51.36,1.51-10.44,3.1-20.88a25,25,0,0,1-2.59-4.52" transform="translate(-57.67 -18.1)" fill="#25c1b2"/><path d="M626.32,156.21q-2,11.89-3.9,23.79a5.21,5.21,0,0,1,.53.67c.88,1.4,1.79,2.76,2.76,4.09q2.22-13.92,4.54-27.82c.43-2.54-3.51-3.27-3.93-.73" transform="translate(-57.67 -18.1)" fill="#25c1b2"/><path d="M624.89,125.6l12-.69s-.69,6-6,6.08-6-5.39-6-5.39" transform="translate(-57.67 -18.1)" fill="#fff"/><path d="M647,120.26h0a34.35,34.35,0,0,1-6.72,11.49c-3.44,3.62-8.14,5.88-14.3,3.83-6.4-2.12-9.11-7.26-10.07-12.74a39.86,39.86,0,0,1,.26-12.84c-3.26-1.06-4.27-7.26-1.86-10.64a4.41,4.41,0,0,1,.87-.93c1.84-1.39,3.35,1,3.64,1.5l.15-.07c.29-1.29.59-2.58,1-3.84.58-1.93,1.41-3.91,3-5.07a5.34,5.34,0,0,1,5.1-.55c1.91.81,3.17,2.64,4.88,3.81a12.46,12.46,0,0,0,7.45,1.71c2.6-.08,5.17-.54,7.77-.47a6.51,6.51,0,0,1,4.27,1.32,5.7,5.7,0,0,1,1.59,3.37,12.21,12.21,0,0,1-2.41,8.89,1.79,1.79,0,0,1,2.55.33,4.33,4.33,0,0,1,.51.67c1.7,2.69-4.54,10.28-7.68,10.23" transform="translate(-57.67 -18.1)" fill="#ffc78a"/><path d="M615.87,122.84c1,5.48,3.67,10.62,10.06,12.74,6.16,2,10.86-.21,14.31-3.83v3.77l-10.41,4.2-2,12.93-6.68-1.11,3.12-11.45c-6.38-3.87-9-8.5-10.12-12.15h0Z" transform="translate(-57.67 -18.1)" fill="#f29b44"/><path d="M661,95.83c.53,2.56-1.1,5.06-2.83,7s-3.65,3.94-4.07,6.48a1.79,1.79,0,0,0-2.55-.33,12.12,12.12,0,0,0,2.41-8.89,5.64,5.64,0,0,0-1.59-3.37,6.47,6.47,0,0,0-4.27-1.32c-2.59-.07-5.17.39-7.76.47a12.43,12.43,0,0,1-7.45-1.71c-1.72-1.17-3-3-4.88-3.81a5.36,5.36,0,0,0-5.11.55,9.24,9.24,0,0,0-3,5.07c-.37,1.26-.67,2.55-1,3.84l-.15.07c-.29-.5-1.8-2.89-3.63-1.5-1.09-1.62-2.78-2.86-3.44-4.71-.81-2.27.23-4.8,1.67-6.74s3.29-3.58,4.47-5.68c1-1.71,1.44-3.69,2.56-5.31a12.15,12.15,0,0,1,6.6-4.32c4.83-1.51,10.47-1.33,14.51,1.72,1.87,1.41,3.32,3.39,5.4,4.47s4.22,1.15,6.38,1.59,4.42,1.39,5.4,3.36c1.32,2.64-.22,5.89.56,8.73.42,1.49,1.46,2.77,1.78,4.29" transform="translate(-57.67 -18.1)" fill="#221c33"/><polygon points="548.72 311.63 544.4 287.26 509.37 271.41 559.57 273.15 589.26 274.17 598.37 442.12 592.12 442.12 574.29 442.12 571.82 442.12 548.72 311.63" fill="#25c1b2"/><path d="M649.79,460.22s6,16.2,4.82,19-11,2.33-22.65,1.69,0-20.69,0-20.69Z" transform="translate(-57.67 -18.1)" fill="#221c33"/><path d="M633.82,106.77l-2.77,14.84s-3.95,0-5.12-1.82,7.89-13,7.89-13" transform="translate(-57.67 -18.1)" fill="#f29b44"/><path d="M630.87,165.39h2.72a12.37,12.37,0,0,1-10.25,6.91,4.7,4.7,0,0,0,1.14-1.24H593.14a1.24,1.24,0,0,0-.31.6h-2.48a1.53,1.53,0,0,0-.5,1.26,2.27,2.27,0,0,0-.33.27l-.11-.11a26.9,26.9,0,0,1-13.75-3.32,16.07,16.07,0,0,1-5.12-4.37h60.33Z" transform="translate(-57.67 -18.1)" fill="#ffda66"/><path d="M625.73,157.85a1.58,1.58,0,1,1-1.58,1.58,1.58,1.58,0,0,1,1.58-1.58" transform="translate(-57.67 -18.1)" fill="#ea4969"/><path d="M623.34,172.3a19.76,19.76,0,0,1-5.73,2.75l2.08,4.52.11.39-13.47,3.61-6.51-4.67s-13.13-3-10.3-5.71a2.27,2.27,0,0,1,.33-.27c.12.92,1.34,2.16,6.23,3.1l.41-2.14c-3.36-.61-3.79-1.6-3.67-2.22a1.34,1.34,0,0,1,.31-.6h31.35a4.7,4.7,0,0,1-1.14,1.24" transform="translate(-57.67 -18.1)" fill="#ffc78a"/><path d="M619.7,160.17a1.2,1.2,0,1,1-1.2,1.2,1.2,1.2,0,0,1,1.2-1.2" transform="translate(-57.67 -18.1)" fill="#ea4969"/><path d="M619.05,157.51a8,8,0,0,1-2.5,1.64c-1.52.52-3.23.18-4.78.55a3.72,3.72,0,0,0-.64.22,4.35,4.35,0,0,0-1.84,1.5,16.67,16.67,0,0,0-3.8-4.19,6.22,6.22,0,0,0-4.4-1.64h0a3,3,0,0,1,1.22-4.17c1.5-.69,3.24,0,4.86.37a10.59,10.59,0,0,0,3.55.13,11.47,11.47,0,0,0,1.3-.25,6.64,6.64,0,0,1,1.74-.35,3.73,3.73,0,0,1,2,.69,7.05,7.05,0,0,1,3.16,5.35Z" transform="translate(-57.67 -18.1)" fill="#25c1b2"/><path d="M611.46,154.23a1.67,1.67,0,0,1,.08,3.33h-.08a1.66,1.66,0,0,1-.34-3.29,1.27,1.27,0,0,1,.34,0" transform="translate(-57.67 -18.1)" fill="#ea4969"/><polygon points="548.72 311.63 551.67 442.12 547.75 442.12 527.84 442.12 525.76 442.12 509.37 271.41 544.4 287.26 548.72 311.63" fill="#25c1b2"/><path d="M632.62,161.57c0,.62.3,1.2.3,1.82a2.1,2.1,0,0,1-2,2H575.05v-.19a7.4,7.4,0,0,1-1.36-3,3.34,3.34,0,0,1,.92-3c1.91-1.71,5.42-.07,7.25-1.86.78-.76,1-1.93,1.64-2.8a4.85,4.85,0,0,1,3.39-1.66,9.44,9.44,0,0,1,6.35,1.51c1.42.92,2.76,2.3,4.44,2.23,1.12,0,2.13-.75,3.24-.95l.17,0a6.22,6.22,0,0,1,4.4,1.64,16.67,16.67,0,0,1,3.8,4.19,4.35,4.35,0,0,1,1.84-1.5,3.72,3.72,0,0,1,.64-.22c1.55-.37,3.26,0,4.78-.55a8,8,0,0,0,2.5-1.64,12.43,12.43,0,0,1,2.47-1.94,5.51,5.51,0,0,1,4.63-.19,8.85,8.85,0,0,0,1.53.64,19.77,19.77,0,0,0,3,0,2.89,2.89,0,0,1,2.64,2.74c0,1-.71,1.85-.68,2.82" transform="translate(-57.67 -18.1)" fill="#4fe0d5"/><path d="M605.42,460.22l.78,18.09H564.42c1.37-14.58,13.8-9.77,13.8-9.77l7.28-8.32Z" transform="translate(-57.67 -18.1)" fill="#221c33"/><path d="M600.61,120a2.21,2.21,0,0,1-1,1.21,2.59,2.59,0,0,1-.82.2,8.06,8.06,0,0,1-3.13-.21,1.14,1.14,0,0,1-.06.25c-.24.56-1,.59-1.59.53-.22,0-.44-.05-.67-.1a2.31,2.31,0,0,1-1.66-.89,2.93,2.93,0,0,1-.34-.88l0-.11a10,10,0,0,1-3.64-4.92,21.84,21.84,0,0,1-1.12-6.12,1.11,1.11,0,0,0-.13-.54,1.26,1.26,0,0,0-.63-.42,9.47,9.47,0,0,1-3.64-2.61H582v-13a57,57,0,0,1,18.77,3A5.57,5.57,0,0,1,603,96.51a4.88,4.88,0,0,1,1.13,2,30.68,30.68,0,0,1,1.19,9.6c0,2.1,0,4.19-.15,6.29a14.76,14.76,0,0,1-.66,3.92,3,3,0,0,1-1.59,1.93,3.44,3.44,0,0,1-2.28-.26" transform="translate(-57.67 -18.1)" fill="#ffc78a"/><path d="M596.49,173.88l-.41,2.14c-4.89-.94-6.11-2.18-6.23-3.1a1.56,1.56,0,0,1,.5-1.26h2.48c-.13.62.3,1.61,3.66,2.22" transform="translate(-57.67 -18.1)" fill="#ffc78a"/><path d="M595.53,159.15a1.24,1.24,0,1,1-1.24,1.23,1.23,1.23,0,0,1,1.24-1.23" transform="translate(-57.67 -18.1)" fill="#ea4969"/><path d="M591.72,161.63a.95.95,0,1,1-.94.94.94.94,0,0,1,.94-.94" transform="translate(-57.67 -18.1)" fill="#ea4969"/><path d="M588.17,155a2.61,2.61,0,1,1-2.6,2.6,2.61,2.61,0,0,1,2.6-2.6" transform="translate(-57.67 -18.1)" fill="#ea4969"/><path d="M614.16,127.93a14.82,14.82,0,0,1-.55-6.32L609.32,126l-16.24-2.7-3.06-.51-24.81-11.5" transform="translate(-57.67 -18.1)" fill="none" stroke="#000" stroke-linecap="round" stroke-linejoin="round"/><path d="M630.14,189.28l.06-.3,4.5-23.37,2.2-11.46-9.06-1.5-6.68-1.11,3.12-11.45c-6.38-3.87-9-8.5-10.12-12.15" transform="translate(-57.67 -18.1)" fill="none" stroke="#000" stroke-linecap="round" stroke-linejoin="round"/><path d="M618.82,100a.34.34,0,0,1-.05-.08c-.29-.5-1.8-2.89-3.63-1.5a4.17,4.17,0,0,0-.87.93c-2.42,3.38-1.41,9.58,1.85,10.63l.09,0" transform="translate(-57.67 -18.1)" fill="none" stroke="#000" stroke-linecap="round" stroke-linejoin="round"/><path d="M647,120.26a40.56,40.56,0,0,0,1.27-4" transform="translate(-57.67 -18.1)" fill="none" stroke="#000" stroke-linecap="round" stroke-linejoin="round"/><path d="M617.21,105.09a42.14,42.14,0,0,0-1.09,4.9,39.67,39.67,0,0,0-.25,12.85c1,5.48,3.67,10.62,10.06,12.74,6.16,2,10.86-.21,14.31-3.83A34.47,34.47,0,0,0,647,120.26" transform="translate(-57.67 -18.1)" fill="none" stroke="#000" stroke-linecap="round" stroke-linejoin="round"/><path d="M651.18,109.38a2.63,2.63,0,0,1,.4-.35,1.79,1.79,0,0,1,2.55.33,4.34,4.34,0,0,1,.52.67c1.69,2.69-4.55,10.28-7.69,10.23h0" transform="translate(-57.67 -18.1)" fill="none" stroke="#000" stroke-linecap="round" stroke-linejoin="round"/><path d="M651.33,109.37l.25-.34a12.12,12.12,0,0,0,2.41-8.89,5.69,5.69,0,0,0-1.59-3.38,6.47,6.47,0,0,0-4.27-1.31c-2.59-.07-5.17.39-7.76.47a12.43,12.43,0,0,1-7.45-1.71c-1.72-1.17-3-3-4.88-3.81a5.34,5.34,0,0,0-5.1.55A9.2,9.2,0,0,0,619.88,96c-.37,1.26-.67,2.55-1,3.83" transform="translate(-57.67 -18.1)" fill="none" stroke="#000" stroke-linecap="round" stroke-linejoin="round"/><path d="M627.84,152.65l2-12.93,10.42-4.2,2.69-1.09,2.44,3.89s29.67,19.85,19.42,21.17c0,0,5.52,3.07,2.16,5.15,0,0,.8,33.66-13.61,58.83-3.4,5.94-7.23,8.78-11.26,9.2-5.69.59-11.76-3.66-17.54-10.81-7.44-9.21-14.39-23.23-19.43-38l1.22-.33L619.8,180l2.14-.57L630.2,189l5.79,6.73L641.2,174" transform="translate(-57.67 -18.1)" fill="none" stroke="#000" stroke-linecap="round" stroke-linejoin="round"/><polyline points="558.21 104.72 558.2 104.74 556.5 109.83 556.5 109.84" fill="none" stroke="#000" stroke-linecap="round" stroke-linejoin="round"/><line x1="582.57" y1="113.65" x2="582.57" y2="117.41" fill="none" stroke="#000" stroke-linecap="round" stroke-linejoin="round"/><path d="M545.59,114.45l19.62-3.13L582,108.64V90.12S539.87,88.79,524.08,98s46,49.64,46,49.64l4.54,11.51" transform="translate(-57.67 -18.1)" fill="none" stroke="#000" stroke-linecap="round" stroke-linejoin="round"/><path d="M582,92.39h0a57,57,0,0,1,18.77,3A5.57,5.57,0,0,1,603,96.51a4.94,4.94,0,0,1,1.13,2,30.68,30.68,0,0,1,1.19,9.6c0,2.1,0,4.19-.15,6.29a14.76,14.76,0,0,1-.66,3.92,3,3,0,0,1-1.59,1.93,3.38,3.38,0,0,1-2.28-.26l-.14,0" transform="translate(-57.67 -18.1)" fill="none" stroke="#000" stroke-linecap="round" stroke-linejoin="round"/><path d="M600.23,101.89a127.42,127.42,0,0,1,.79,15,11.71,11.71,0,0,1-.2,2.44,4.33,4.33,0,0,1-.21.7,2.21,2.21,0,0,1-1,1.21,2.59,2.59,0,0,1-.82.2,8.06,8.06,0,0,1-3.13-.21" transform="translate(-57.67 -18.1)" fill="none" stroke="#000" stroke-linecap="round" stroke-linejoin="round"/><path d="M595,102.09q.33,9.42.65,18.81a1.82,1.82,0,0,1,0,.33.74.74,0,0,1,0,.25c-.24.56-1,.59-1.59.53-.22,0-.44-.05-.67-.1a2.31,2.31,0,0,1-1.66-.89,2.93,2.93,0,0,1-.34-.88l0-.11c-1.39-5.76-.58-11.82-1.1-17.74" transform="translate(-57.67 -18.1)" fill="none" stroke="#000" stroke-linecap="round" stroke-linejoin="round"/><path d="M582.12,105.42a9.47,9.47,0,0,0,3.64,2.61,1.26,1.26,0,0,1,.63.42,1.11,1.11,0,0,1,.13.54,21.84,21.84,0,0,0,1.12,6.12,10,10,0,0,0,3.64,4.92h0" transform="translate(-57.67 -18.1)" fill="none" stroke="#000" stroke-linecap="round" stroke-linejoin="round"/><path d="M623.31,172.3h0a12.37,12.37,0,0,0,10.25-6.91H570.54a16.07,16.07,0,0,0,5.12,4.37,26.87,26.87,0,0,0,13.75,3.32" transform="translate(-57.67 -18.1)" fill="none" stroke="#000" stroke-linecap="round" stroke-linejoin="round"/><path d="M575.56,169.93l1.1,35.14s-12.75,67.75-13,84.33l3.39.12,50.2,1.73,29.7,1-4.85-59.6h0" transform="translate(-57.67 -18.1)" fill="none" stroke="#000" stroke-linecap="round" stroke-linejoin="round"/><polyline points="566.87 203.74 566.87 203.75 559.57 273.15" fill="none" stroke="#000" stroke-linecap="round" stroke-linejoin="round"/><path d="M619.7,179.57l-2.09-4.52a19.76,19.76,0,0,0,5.73-2.75,4.7,4.7,0,0,0,1.14-1.24H593.13a1.27,1.27,0,0,0-.3.6c-.13.62.3,1.61,3.66,2.22a43.31,43.31,0,0,0,7,.54" transform="translate(-57.67 -18.1)" fill="none" stroke="#000" stroke-linecap="round" stroke-linejoin="round"/><path d="M592.84,171.66h-2.49a1.53,1.53,0,0,0-.5,1.26c.12.92,1.34,2.16,6.23,3.1a67.48,67.48,0,0,0,8,1" transform="translate(-57.67 -18.1)" fill="none" stroke="#000" stroke-linecap="round" stroke-linejoin="round"/><path d="M606.33,183.57l-6.51-4.67s-13.13-3-10.3-5.71a2.27,2.27,0,0,1,.33-.27" transform="translate(-57.67 -18.1)" fill="none" stroke="#000" stroke-linecap="round" stroke-linejoin="round"/><polyline points="548.72 311.63 548.72 311.63 551.67 442.12 547.75 442.12 527.84 442.12 525.76 442.12 509.37 271.41 542.61 277.13 548.72 311.63 571.82 442.12 574.29 442.12 592.12 442.12 598.37 442.12 589.26 274.17" fill="none" stroke="#000" stroke-linecap="round" stroke-linejoin="round"/><path d="M636.65,124a18,18,0,0,1-10.16,3.14c-.64,0-.55,1,.09,1a19,19,0,0,0,10.64-3.32c.54-.36,0-1.18-.57-.82" transform="translate(-57.67 -18.1)" fill="#221c33"/><path d="M595.45,125.54c-1.29,0-1.1,2,.17,2s1.11-2-.17-2" transform="translate(-57.67 -18.1)" fill="#221c33"/><path d="M592.25,132.77c-1.28,0-1.1,2,.18,2s1.1-2-.18-2" transform="translate(-57.67 -18.1)" fill="#221c33"/><path d="M600.51,133.42l-.13-.23a1.1,1.1,0,0,0-.38-.33l-.28-.14a.73.73,0,0,0-.38-.08.78.78,0,0,0-.4.05.69.69,0,0,0-.32.21.76.76,0,0,0-.23.3,1.83,1.83,0,0,0-.08.25,1,1,0,0,0,0,.53l.12.23a1,1,0,0,0,.39.32l.28.14a.85.85,0,0,0,.38.09.78.78,0,0,0,.4-.06.83.83,0,0,0,.32-.2.72.72,0,0,0,.23-.31,2.25,2.25,0,0,0,.08-.24,1.06,1.06,0,0,0,0-.53" transform="translate(-57.67 -18.1)" fill="#221c33"/><path d="M595.58,142.48a.87.87,0,0,0-.23-.31l-.22-.13a1,1,0,0,0-.51-.1l-.27.06a.93.93,0,0,0-.41.3l-.14.14a.72.72,0,0,0-.18.33.78.78,0,0,0,0,.4.81.81,0,0,0,.12.37.76.76,0,0,0,.23.3l.22.14a1,1,0,0,0,.51.1l.26-.06a1,1,0,0,0,.42-.3l.14-.14a.75.75,0,0,0,.18-.34.73.73,0,0,0,.05-.39.77.77,0,0,0-.12-.37" transform="translate(-57.67 -18.1)" fill="#221c33"/><path d="M586.69,149c-1.28,0-1.1,2,.18,2s1.1-2-.18-2" transform="translate(-57.67 -18.1)" fill="#221c33"/><path d="M597.39,151a.73.73,0,0,0-.24-.31.65.65,0,0,0-.34-.17.73.73,0,0,0-.39-.06l-.26.06a1,1,0,0,0-.42.3l-.13.21a1,1,0,0,0-.1.52v.13a.81.81,0,0,0,.12.38.7.7,0,0,0,.24.3.75.75,0,0,0,.34.18.73.73,0,0,0,.39.05l.26-.05a1.25,1.25,0,0,0,.42-.3l.13-.21a1.05,1.05,0,0,0,.1-.52v-.14a.77.77,0,0,0-.12-.37" transform="translate(-57.67 -18.1)" fill="#221c33"/><path d="M606.29,142.64c-1.29,0-1.1,2,.18,2s1.1-2-.18-2" transform="translate(-57.67 -18.1)" fill="#221c33"/><path d="M602.45,160.1a1,1,0,0,0-.29-.41l-.22-.14a.9.9,0,0,0-.51-.09h-.14a.66.66,0,0,0-.38.12.76.76,0,0,0-.3.23.75.75,0,0,0-.18.34.73.73,0,0,0,0,.39l.06.26a1,1,0,0,0,.29.42l.22.14a1.1,1.1,0,0,0,.51.09h.14a.85.85,0,0,0,.38-.12.76.76,0,0,0,.3-.23.8.8,0,0,0,.18-.34.76.76,0,0,0,0-.39l-.06-.27" transform="translate(-57.67 -18.1)" fill="#221c33"/><path d="M606.71,153.62c-1.29,0-1.11,2,.17,2s1.11-2-.17-2" transform="translate(-57.67 -18.1)" fill="#221c33"/><path d="M615.19,160.43c-1.29,0-1.11,2,.17,2s1.11-2-.17-2" transform="translate(-57.67 -18.1)" fill="#221c33"/><path d="M583,160.8a1,1,0,0,0-.29-.42l-.22-.14a1.1,1.1,0,0,0-.51-.09h-.28a.85.85,0,0,0-.38.12.7.7,0,0,0-.3.24.72.72,0,0,0-.18.33.78.78,0,0,0-.05.4l.06.26a1,1,0,0,0,.29.41l.22.14a.9.9,0,0,0,.51.09h.28a.7.7,0,0,0,.38-.11.78.78,0,0,0,.3-.24.75.75,0,0,0,.18-.34.73.73,0,0,0,0-.39l-.06-.26" transform="translate(-57.67 -18.1)" fill="#221c33"/><path d="M627.78,106.12c-.32,1.53-1.46,2.59-2.54,2.36s-1.7-1.66-1.37-3.19,1.47-2.58,2.55-2.35,1.69,1.65,1.36,3.18" transform="translate(-57.67 -18.1)" fill="#221c33"/><path d="M641.89,110.22c-.33,1.53-1.47,2.59-2.55,2.36s-1.69-1.66-1.37-3.19,1.47-2.58,2.55-2.35,1.69,1.65,1.37,3.18" transform="translate(-57.67 -18.1)" fill="#221c33"/><path d="M628.89,97.59a10,10,0,0,0-5.66.94,1.66,1.66,0,0,0-.84.77,1.55,1.55,0,0,0,0,1.16,1.53,1.53,0,0,0,.77.83,1.42,1.42,0,0,0,1.16,0,9,9,0,0,1,1.8-.66,8.35,8.35,0,0,1,1.93-.16l.35,0a1.55,1.55,0,0,0,1.13-.25,1.5,1.5,0,0,0-.59-2.7" transform="translate(-57.67 -18.1)" fill="#221c33"/><path d="M645.92,103.68a12.28,12.28,0,0,0-5.07-2.82,1.53,1.53,0,0,0-1.14.25,1.51,1.51,0,0,0-.61,1,1.53,1.53,0,0,0,.25,1.14,1.72,1.72,0,0,0,.95.6l.07,0a11.44,11.44,0,0,1,2.24,1A10.4,10.4,0,0,1,644,106a1.5,1.5,0,0,0,2.11-.19,1.53,1.53,0,0,0-.18-2.11" transform="translate(-57.67 -18.1)" fill="#221c33"/><path d="M614.8,296.07a1.54,1.54,0,0,0-2,.72l-4.14,8.07a1.51,1.51,0,0,0,.71,2,1.54,1.54,0,0,0,2-.71l4.14-8.08a1.51,1.51,0,0,0-.71-2" transform="translate(-57.67 -18.1)" fill="#4fe0d5"/><path d="M635,301.38l-5.89-5.23a1.5,1.5,0,0,0-2.11.18,1.52,1.52,0,0,0,.19,2.11l5.88,5.24a1.51,1.51,0,0,0,2.11-.19,1.53,1.53,0,0,0-.18-2.11" transform="translate(-57.67 -18.1)" fill="#4fe0d5"/><path d="M622.79,306.28a1.55,1.55,0,0,0-1.75,1.21l-1.59,5.85a1.51,1.51,0,0,0,1.2,1.75,1.54,1.54,0,0,0,1.75-1.2L624,308a1.51,1.51,0,0,0-1.21-1.75" transform="translate(-57.67 -18.1)" fill="#4fe0d5"/><path d="M638.59,319.83a1.54,1.54,0,0,0-1.62-1.37l-7.51-.26a1.5,1.5,0,0,0-1.36,1.63,1.54,1.54,0,0,0,1.62,1.36l7.51.26a1.49,1.49,0,0,0,1.36-1.62" transform="translate(-57.67 -18.1)" fill="#4fe0d5"/><path d="M642.9,311.17,641,302.83A1.5,1.5,0,0,0,639,302a1.54,1.54,0,0,0-.88,1.93l2,8.34a1.49,1.49,0,0,0,1.92.88,1.55,1.55,0,0,0,.89-1.93" transform="translate(-57.67 -18.1)" fill="#4fe0d5"/><path d="M620,328.5c-.27-2.41-.55-4.82-.82-7.23a1.5,1.5,0,0,0-3,.26c.27,2.41.55,4.82.82,7.23a1.5,1.5,0,1,0,3-.26" transform="translate(-57.67 -18.1)" fill="#4fe0d5"/><path d="M594.05,300.49a1.55,1.55,0,0,0-1.75,1.2q-1,3.35-2,6.67a1.51,1.51,0,0,0,1.21,1.75,1.54,1.54,0,0,0,1.74-1.21q1-3.33,2-6.66a1.5,1.5,0,0,0-1.2-1.75" transform="translate(-57.67 -18.1)" fill="#4fe0d5"/><path d="M578.85,304.41l-3.06-4.73a1.51,1.51,0,0,0-2.09-.36,1.54,1.54,0,0,0-.35,2.1l3,4.72a1.5,1.5,0,1,0,2.45-1.73" transform="translate(-57.67 -18.1)" fill="#4fe0d5"/><path d="M586.24,317.12a1.51,1.51,0,0,0-2.11.18l-4,5.22a1.5,1.5,0,0,0,2.3,1.93l4-5.22a1.52,1.52,0,0,0-.18-2.11" transform="translate(-57.67 -18.1)" fill="#4fe0d5"/><path d="M588,295.52a1.44,1.44,0,0,0-1-.6l-5.28-.28a1.64,1.64,0,0,0-1.14.25,1.55,1.55,0,0,0-.61.95,1.58,1.58,0,0,0,.25,1.14,1.46,1.46,0,0,0,1,.61l5.28.28a1.69,1.69,0,0,0,1.14-.25,1.5,1.5,0,0,0,.35-2.1" transform="translate(-57.67 -18.1)" fill="#4fe0d5"/><path d="M602.06,324.23l-2.81-6.38a1.5,1.5,0,0,0-2.81,1l2.81,6.38a1.5,1.5,0,1,0,2.81-1" transform="translate(-57.67 -18.1)" fill="#4fe0d5"/><path d="M594.46,328.45a1.55,1.55,0,0,0-.76-.83,1.52,1.52,0,0,0-2,.71q-1,2.78-2,5.55a1.6,1.6,0,0,0-.05,1.16,1.5,1.5,0,0,0,2.76.12l2-5.55a1.6,1.6,0,0,0,.05-1.16" transform="translate(-57.67 -18.1)" fill="#4fe0d5"/><path d="M575.49,323.23l-1.11-5.29a1.6,1.6,0,0,0-.54-1,1.5,1.5,0,0,0-1.09-.35,1.53,1.53,0,0,0-1,.53,1.47,1.47,0,0,0-.34,1.1l1.11,5.28a1.64,1.64,0,0,0,.53,1,1.53,1.53,0,0,0,1.09.34,1.48,1.48,0,0,0,1-.53,1.41,1.41,0,0,0,.35-1.09" transform="translate(-57.67 -18.1)" fill="#4fe0d5"/><path d="M583,341.93,578.28,340a1.5,1.5,0,0,0-1.29,2.71l4.74,1.93a1.5,1.5,0,0,0,1.28-2.71" transform="translate(-57.67 -18.1)" fill="#4fe0d5"/><path d="M601,337.79a1.51,1.51,0,0,0-2.7.6c-.13,1.85-.26,3.7-.4,5.55a1.63,1.63,0,0,0,.25,1.14,1.55,1.55,0,0,0,1,.61,1.51,1.51,0,0,0,1.74-1.21c.14-1.85.27-3.7.4-5.55a1.65,1.65,0,0,0-.25-1.14" transform="translate(-57.67 -18.1)" fill="#4fe0d5"/><path d="M585,332.44a1.52,1.52,0,0,0-1.63-1.37l-6.12,1.1a1.53,1.53,0,0,0-1.36,1.63,1.52,1.52,0,0,0,1.62,1.36l6.12-1.1a1.54,1.54,0,0,0,1.37-1.62" transform="translate(-57.67 -18.1)" fill="#4fe0d5"/><path d="M591,346.36a1.53,1.53,0,0,0-1.74,1.2l-1.14,6.67a1.5,1.5,0,1,0,3,.54l1.14-6.66a1.52,1.52,0,0,0-1.21-1.75" transform="translate(-57.67 -18.1)" fill="#4fe0d5"/><path d="M586.87,361.71q-2.79-3.33-5.56-6.67a1.55,1.55,0,0,0-2.1-.36,1.51,1.51,0,0,0-.35,2.09q2.77,3.35,5.56,6.67a1.5,1.5,0,1,0,2.45-1.73" transform="translate(-57.67 -18.1)" fill="#4fe0d5"/><path d="M602.06,356.07a1.52,1.52,0,0,0-1.74,1.21q-.55,2.91-1.12,5.84a1.52,1.52,0,0,0,1.21,1.74,1.54,1.54,0,0,0,1.75-1.2l1.11-5.84a1.52,1.52,0,0,0-1.21-1.75" transform="translate(-57.67 -18.1)" fill="#4fe0d5"/><path d="M593.3,364.46a1.5,1.5,0,0,0-2.45,1.28v5a1.51,1.51,0,0,0,1.62,1.36,1.54,1.54,0,0,0,1.36-1.63v-5a1.53,1.53,0,0,0-.53-1" transform="translate(-57.67 -18.1)" fill="#4fe0d5"/><path d="M585.77,375.06l-4.45-3.32a1.61,1.61,0,0,0-1.1-.35,1.51,1.51,0,0,0-1,.53,1.53,1.53,0,0,0,.19,2.12l4.45,3.32a1.57,1.57,0,0,0,1.1.34,1.5,1.5,0,0,0,.83-2.64" transform="translate(-57.67 -18.1)" fill="#4fe0d5"/><path d="M601.81,374.26a1.53,1.53,0,0,0-.77-.83,1.51,1.51,0,0,0-1.16-.05,1.42,1.42,0,0,0-.83.76l-1.39,4.17a1.58,1.58,0,0,0,0,1.17,1.48,1.48,0,0,0,.76.83,1.53,1.53,0,0,0,1.17.05,1.45,1.45,0,0,0,.83-.76c.46-1.39.92-2.78,1.39-4.17a1.68,1.68,0,0,0,0-1.17" transform="translate(-57.67 -18.1)" fill="#4fe0d5"/><path d="M591.87,382.77a1.54,1.54,0,0,0-1.75,1.21c-.19,1.48-.38,3-.58,4.44a1.5,1.5,0,1,0,3,.54l.57-4.44a1.53,1.53,0,0,0-1.2-1.75" transform="translate(-57.67 -18.1)" fill="#4fe0d5"/><path d="M587.45,398.38l-4.17-5.56a1.5,1.5,0,1,0-2.45,1.74l4.17,5.56a1.5,1.5,0,0,0,2.45-1.74" transform="translate(-57.67 -18.1)" fill="#4fe0d5"/><path d="M590,405.05a1.54,1.54,0,0,0-1-.6,1.5,1.5,0,0,0-1.14.25,1.77,1.77,0,0,0-.6.95c-.47,1.48-.93,3-1.4,4.45a1.55,1.55,0,0,0,.26,1.14,1.51,1.51,0,0,0,1,.6,1.49,1.49,0,0,0,1.14-.25,1.79,1.79,0,0,0,.61-.95l1.39-4.45a1.55,1.55,0,0,0-.25-1.14" transform="translate(-57.67 -18.1)" fill="#4fe0d5"/><path d="M589.22,425.16,587,419.31a1.5,1.5,0,0,0-2.81,1.05l2.19,5.85a1.51,1.51,0,0,0,1.93.88,1.53,1.53,0,0,0,.88-1.93" transform="translate(-57.67 -18.1)" fill="#4fe0d5"/><path d="M599.21,392.87a1.52,1.52,0,0,0-2.12.19l-3.34,4.16a1.5,1.5,0,0,0,2.3,1.93l3.34-4.17a1.52,1.52,0,0,0-.18-2.11" transform="translate(-57.67 -18.1)" fill="#4fe0d5"/><path d="M607,404.94q-.78-3.76-1.55-7.53a1.54,1.54,0,0,0-1.63-1.36,1.51,1.51,0,0,0-1.36,1.62L604,405.2a1.55,1.55,0,0,0,1.63,1.37,1.52,1.52,0,0,0,1.36-1.63" transform="translate(-57.67 -18.1)" fill="#4fe0d5"/><path d="M600.83,411a1.54,1.54,0,0,0-2,.72q-1.11,2.64-2.23,5.28a1.5,1.5,0,0,0,2.72,1.28l2.22-5.28a1.52,1.52,0,0,0-.71-2" transform="translate(-57.67 -18.1)" fill="#4fe0d5"/><path d="M604.57,381.09a1.54,1.54,0,0,0-1.75,1.21l-1.11,5a1.51,1.51,0,0,0,1.2,1.75,1.54,1.54,0,0,0,1.75-1.21l1.11-5a1.51,1.51,0,0,0-1.2-1.75" transform="translate(-57.67 -18.1)" fill="#4fe0d5"/><path d="M600.78,429.28l-5.56-4.74a1.51,1.51,0,0,0-2.11.19,1.53,1.53,0,0,0,.18,2.11l5.56,4.73a1.51,1.51,0,0,0,2.11-.18,1.53,1.53,0,0,0-.18-2.11" transform="translate(-57.67 -18.1)" fill="#4fe0d5"/><path d="M607.74,427.47l-.74-5a1.5,1.5,0,0,0-3,.27l.75,5a1.5,1.5,0,1,0,3-.26" transform="translate(-57.67 -18.1)" fill="#4fe0d5"/><path d="M604.15,436.74a1.52,1.52,0,0,0-2.12.19l-3.61,5.28a1.66,1.66,0,0,0-.35,1.09,1.59,1.59,0,0,0,.53,1,1.52,1.52,0,0,0,2.12-.18l3.61-5.29a1.64,1.64,0,0,0,.35-1.09,1.59,1.59,0,0,0-.53-1" transform="translate(-57.67 -18.1)" fill="#4fe0d5"/><path d="M593.39,435a1.5,1.5,0,1,0-3,.26q.38,3.61.74,7.24a1.5,1.5,0,1,0,3-.27c-.25-2.41-.49-4.82-.74-7.23" transform="translate(-57.67 -18.1)" fill="#4fe0d5"/><path d="M597.73,451.43a1.53,1.53,0,0,0-1.62-1.37l-8.34.84a1.5,1.5,0,1,0,.26,3l8.34-.84a1.51,1.51,0,0,0,1.36-1.62" transform="translate(-57.67 -18.1)" fill="#4fe0d5"/><path d="M618.53,336.19l-5.28-4.73a1.5,1.5,0,0,0-2.11.18,1.52,1.52,0,0,0,.19,2.11l5.27,4.74a1.51,1.51,0,0,0,2.11-.19,1.53,1.53,0,0,0-.18-2.11" transform="translate(-57.67 -18.1)" fill="#4fe0d5"/><path d="M631.65,328.33a1.51,1.51,0,0,0-.95-.61,1.53,1.53,0,0,0-1.14.25,1.77,1.77,0,0,0-.61.95c-.56,1.76-1.11,3.52-1.67,5.29a1.5,1.5,0,0,0,1.21,1.74,1.46,1.46,0,0,0,1.13-.25,1.73,1.73,0,0,0,.61-.95c.56-1.76,1.11-3.52,1.67-5.28a1.49,1.49,0,0,0-.25-1.14" transform="translate(-57.67 -18.1)" fill="#4fe0d5"/><path d="M612.35,312.43a1.54,1.54,0,0,0-1.75,1.2l-1.11,5.84a1.5,1.5,0,1,0,3,.54l1.11-5.83a1.51,1.51,0,0,0-1.2-1.75" transform="translate(-57.67 -18.1)" fill="#4fe0d5"/><path d="M643.51,335.43l-5.23-3.68a1.61,1.61,0,0,0-1.1-.35,1.53,1.53,0,0,0-1,.53,1.51,1.51,0,0,0,.19,2.11l5.23,3.69a1.61,1.61,0,0,0,1.1.34,1.53,1.53,0,0,0,1-.53,1.51,1.51,0,0,0-.19-2.11" transform="translate(-57.67 -18.1)" fill="#4fe0d5"/><path d="M642.43,346.73a1.52,1.52,0,0,0-2,.71l-2.22,5.28a1.5,1.5,0,0,0,2.71,1.29l2.22-5.29a1.51,1.51,0,0,0-.71-2" transform="translate(-57.67 -18.1)" fill="#4fe0d5"/><path d="M645.28,321.63a1.54,1.54,0,0,0-1.75,1.2c-.39,2-.77,4.07-1.16,6.11a1.5,1.5,0,0,0,1.2,1.74,1.53,1.53,0,0,0,1.75-1.2l1.17-6.11a1.52,1.52,0,0,0-1.21-1.74" transform="translate(-57.67 -18.1)" fill="#4fe0d5"/><path d="M630,352.56c-.65-2.41-1.29-4.82-1.94-7.23a1.5,1.5,0,0,0-1.93-.88,1.53,1.53,0,0,0-.88,1.93q1,3.62,1.94,7.23a1.5,1.5,0,0,0,1.93.88,1.54,1.54,0,0,0,.88-1.93" transform="translate(-57.67 -18.1)" fill="#4fe0d5"/><path d="M622,356.37l-4.73-3.61a1.5,1.5,0,0,0-1.93,2.3l4.73,3.61a1.5,1.5,0,0,0,1.93-2.3" transform="translate(-57.67 -18.1)" fill="#4fe0d5"/><path d="M630.82,369.75a1.55,1.55,0,0,0-1-.61,1.53,1.53,0,0,0-1.14.25,1.76,1.76,0,0,0-.61,1l-1.66,5.56a1.5,1.5,0,0,0,.25,1.14,1.54,1.54,0,0,0,.95.6,1.49,1.49,0,0,0,1.14-.25,1.73,1.73,0,0,0,.61-.95l1.66-5.56a1.49,1.49,0,0,0-.25-1.14" transform="translate(-57.67 -18.1)" fill="#4fe0d5"/><path d="M639.15,362a1.55,1.55,0,0,0-1.62-1.36l-7.23-.22a1.52,1.52,0,0,0-1.37,1.63,1.55,1.55,0,0,0,1.63,1.36l7.23.22a1.51,1.51,0,0,0,1.36-1.63" transform="translate(-57.67 -18.1)" fill="#4fe0d5"/><path d="M645,360.78a1.54,1.54,0,0,0-1.36,1.63v8.34a1.5,1.5,0,0,0,1.62,1.36,1.54,1.54,0,0,0,1.36-1.63v-8.34a1.51,1.51,0,0,0-1.62-1.36" transform="translate(-57.67 -18.1)" fill="#4fe0d5"/><path d="M622.49,372l-4.73-6.39a1.5,1.5,0,1,0-2.45,1.74L620,373.7a1.5,1.5,0,1,0,2.45-1.74" transform="translate(-57.67 -18.1)" fill="#4fe0d5"/><path d="M644.05,377.84a1.51,1.51,0,0,0-1.93-.88l-7.78,3.35a1.5,1.5,0,0,0,1,2.82l7.77-3.36a1.54,1.54,0,0,0,.89-1.93" transform="translate(-57.67 -18.1)" fill="#4fe0d5"/><path d="M628.34,390.59l-5.62-5.51a1.5,1.5,0,0,0-2.11.19,1.53,1.53,0,0,0,.18,2.11l5.62,5.5a1.49,1.49,0,0,0,2.11-.18,1.53,1.53,0,0,0-.18-2.11" transform="translate(-57.67 -18.1)" fill="#4fe0d5"/><path d="M648.33,386.43a1.51,1.51,0,0,0-1-.61,1.53,1.53,0,0,0-1.14.25,1.68,1.68,0,0,0-.61.95l-1.11,3.9a1.46,1.46,0,0,0,.25,1.13,1.51,1.51,0,0,0,1,.61,1.49,1.49,0,0,0,1.14-.25,1.68,1.68,0,0,0,.61-1l1.11-3.89a1.53,1.53,0,0,0-.25-1.14" transform="translate(-57.67 -18.1)" fill="#4fe0d5"/><path d="M638.23,397.61c-.46-1.94-.93-3.89-1.39-5.84a1.48,1.48,0,0,0-.76-.83,1.5,1.5,0,0,0-2,.72,1.71,1.71,0,0,0-.05,1.16l1.39,5.84a1.48,1.48,0,0,0,.76.83,1.53,1.53,0,0,0,1.17.05,1.51,1.51,0,0,0,.83-.76,1.74,1.74,0,0,0,.05-1.17" transform="translate(-57.67 -18.1)" fill="#4fe0d5"/><path d="M633.75,403.36l-6.12-1.1a1.5,1.5,0,0,0-.54,2.95l6.12,1.1a1.5,1.5,0,0,0,.54-2.95" transform="translate(-57.67 -18.1)" fill="#4fe0d5"/><path d="M646.67,399.46a1.53,1.53,0,0,0-1.75,1.21l-1.16,6.38a1.5,1.5,0,1,0,3,.55q.59-3.19,1.16-6.39a1.51,1.51,0,0,0-1.2-1.75" transform="translate(-57.67 -18.1)" fill="#4fe0d5"/><path d="M639.19,409.43a1.53,1.53,0,0,0-1.36,1.62v6.4a1.5,1.5,0,0,0,1.62,1.36,1.53,1.53,0,0,0,1.37-1.62v-6.4a1.51,1.51,0,0,0-1.63-1.36" transform="translate(-57.67 -18.1)" fill="#4fe0d5"/><path d="M631.38,419.81l-2.88-6.63a1.5,1.5,0,0,0-2.81,1l2.88,6.63a1.54,1.54,0,0,0,1.93.89,1.51,1.51,0,0,0,.88-1.93" transform="translate(-57.67 -18.1)" fill="#4fe0d5"/><path d="M640.2,428a1.53,1.53,0,0,0-1.93-.88l-6.67,2.23a1.5,1.5,0,0,0,1,2.81l6.67-2.23a1.52,1.52,0,0,0,.88-1.93" transform="translate(-57.67 -18.1)" fill="#4fe0d5"/><path d="M650.46,419.3q-.84-2.51-1.67-5a1.5,1.5,0,0,0-2.81,1c.55,1.67,1.11,3.34,1.66,5a1.52,1.52,0,0,0,1.93.89,1.54,1.54,0,0,0,.89-1.93" transform="translate(-57.67 -18.1)" fill="#4fe0d5"/><path d="M649.38,429.59a1.51,1.51,0,0,0-2.77-.11c-.64,1.85-1.29,3.7-1.93,5.56a1.6,1.6,0,0,0,0,1.16,1.56,1.56,0,0,0,.76.84,1.53,1.53,0,0,0,2-.72l1.94-5.56a1.68,1.68,0,0,0,0-1.17" transform="translate(-57.67 -18.1)" fill="#4fe0d5"/><path d="M644.64,440.79,638,437.46a1.5,1.5,0,1,0-1.28,2.71l6.67,3.33a1.52,1.52,0,0,0,2-.71,1.54,1.54,0,0,0-.72-2" transform="translate(-57.67 -18.1)" fill="#4fe0d5"/><path d="M651.85,441.48a1.51,1.51,0,0,0-2.7.6c-.13,1.94-.27,3.89-.4,5.83a1.65,1.65,0,0,0,.25,1.14,1.55,1.55,0,0,0,1,.61,1.51,1.51,0,0,0,1.74-1.21c.14-1.94.27-3.89.4-5.83a1.65,1.65,0,0,0-.25-1.14" transform="translate(-57.67 -18.1)" fill="#4fe0d5"/><path d="M639.38,447.79a1.53,1.53,0,0,0-2.12.19c-1.47,1.58-3,3.16-4.42,4.75a1.5,1.5,0,0,0,.18,2.11,1.54,1.54,0,0,0,2.12-.19c1.47-1.58,3-3.16,4.42-4.75a1.51,1.51,0,0,0-.18-2.11" transform="translate(-57.67 -18.1)" fill="#4fe0d5"/><path d="M303.92,133.45s3.38,2.16,8.2,5.33c-.05.12-.09.24-.13.36-1.21,3.82-.45,7.94-.48,12a54.62,54.62,0,0,1-1,8.83,36.26,36.26,0,0,1-.84,4l-.06,0-6.84-3.06c1.34,3.26,3.18,9.46-1.07,15.57h0l5,81.73-29.55,5.28c-4.17.33-8.62.51-13.26.44a107.24,107.24,0,0,1-34.34-5.72h0c4.47-26.69,10.06-51.29,10.06-51.29L236.71,194c-7.45,2.41-14.32,4.3-17.53,4.3-8.81,0-2.41-55.41-2.41-55.41s.83-1.76,4.07-2.22c0,0-4-2.78,0-4.08s21.92-5.1,21.92-5.1l1-3.88,2.05-8.33,1.46.82L264.72,130v7.81l4.32-.16-2.44-7.69,4.88-1L271,127.1l-.9-3.08,9.27.72v4.06s30.3.13,24.6,4.65" transform="translate(-57.67 -18.1)" fill="#fff"/><path d="M268.75,166.51q-1.44-13.53-3.24-27c-.34-2.54-4.33-2.2-4,.35q6.32,47.32,8.06,95.09.5,13.6.61,27.2c0,2.58,4,2.21,4-.35q-.4-47.73-5.43-95.27" transform="translate(-57.67 -18.1)" fill="#25c1b2"/><path d="M275.79,113c-1.62,4-4.05,6.34-6.79,7.51-4.49,1.92-9.8.58-13.71-2.38,0,0,3.54,8.91,15.66,9l.53,1.81-4.88,1,2.44,7.69-4.32.16V130l-17.49-9.86,2.25-13.63c-3.22-2.55-4.3-4.84-4.48-6.63a5.33,5.33,0,0,1,1.23-4s13.06-2.44,23.13-7.23c.27,0,5.23.29,8.38-.84a45.81,45.81,0,0,1,.6,4.64c.43,5,.47,13.24-2.55,20.57" transform="translate(-57.67 -18.1)" fill="#ffc78a"/><path d="M232.89,85.45a8.54,8.54,0,0,1,3.58-6.86A15.11,15.11,0,0,1,244,75.91c-2.7-1.53-5.5-3.48-6.39-6.45a7.74,7.74,0,0,1,1.14-6.39,11,11,0,0,1,5.26-4,12.23,12.23,0,0,1,7.1-.51,9.75,9.75,0,0,1,5.82,4c1-3.83,2.87-7.61,6.11-9.87s8-2.57,11,.09a8.87,8.87,0,0,1,2.46,7.78,16.5,16.5,0,0,1-3.5,7.74S262.26,81.79,245.77,88a13.32,13.32,0,0,1-4.11,2.55,7.53,7.53,0,0,1-4.06.68,6,6,0,0,1-4.71-5.73" transform="translate(-57.67 -18.1)" fill="#fff"/><path d="M343.39,161.66l-11.95,29.19L324.91,181l.86-10h0l.17-2c2.1-2.85,4.83,1.29-1.31-10.08l-2.2,1.22a38.28,38.28,0,0,0,4.93-3.71,6.35,6.35,0,0,0,1.86-3.85,9.94,9.94,0,0,0-.2-2.24c6.14,4.37,11.72,8.61,14.37,11.36" transform="translate(-57.67 -18.1)" fill="#fff"/><path d="M259,107.66l9.24,3.76s-1.85,3.92-6,2.64-3.24-6.4-3.24-6.4" transform="translate(-57.67 -18.1)" fill="#fff"/><path d="M282.37,177.58c-.55,1.91-6.39,2.57-7.85,2.5s-.58-2.92-.58-2.92c-4.08,3.82-10,3.29-10,3.29L262.08,168h0s5.14-2.89,9.49-4.74a22.7,22.7,0,0,1,4.09-1.39,4.72,4.72,0,0,1,.59-.09c3.61-.31,9.26-.37,9.53,4.72.85.42,1.53.93,1.66,1.5a8.46,8.46,0,0,1-.64,4.14,3.18,3.18,0,0,1,.34,1.11,2.89,2.89,0,0,1-1.35,2.65,11.38,11.38,0,0,1-3.43,1.66" transform="translate(-57.67 -18.1)" fill="#ffc78a"/><path d="M306,193.62c-.78-.29-13.5-5-13.16-6.1s17.58.21,20.15,0,4-1.64,3.13-2.3-9.28-2.67-10.49-4.79,17.93,1.67,17.93,1.67a10.55,10.55,0,0,0,1-1.2l.39.08,6.53,9.87S314.63,199,303,199.29c-4.37.1-8-.93-9.69-4h0c-.3-.15-.6-.32-.91-.51-1.16-.71-1.16-1.17-.43-1.46,2.36-.93,12.36,0,13.94.27" transform="translate(-57.67 -18.1)" fill="#ffc78a"/><path d="M312.12,138.78a3.78,3.78,0,0,1,1.93-2.35,6.79,6.79,0,0,1,2.47-.21,8.4,8.4,0,0,0,3.42-.76c1.89-.87,3.58-2.48,5.66-2.48a5.24,5.24,0,0,1,3.8,1.91,7.78,7.78,0,0,1,1.64,7.2c-.61,2.11-2.12,4-2.22,6.17a9.41,9.41,0,0,0,.2,2,9.94,9.94,0,0,1,.2,2.24,6.35,6.35,0,0,1-1.86,3.85,38.28,38.28,0,0,1-4.93,3.71l-15,8.31a11.79,11.79,0,0,0,2.22-4.5h0a36.26,36.26,0,0,0,.84-4,54.62,54.62,0,0,0,1-8.83c0-4-.73-8.13.48-12,0-.12.08-.24.13-.36" transform="translate(-57.67 -18.1)" fill="#ffda66"/><path d="M307.45,168.41l15-8.31,2.2-1.22c6.14,11.37,2,19.17-.11,22a10.55,10.55,0,0,1-1,1.2s-19.15-3.79-17.93-1.67,9.62,4.13,10.49,4.79-.56,2.09-3.13,2.3-19.8-1.11-20.15,0,12.38,5.81,13.16,6.1c-1.58-.27-11.58-1.2-13.94-.27l-.06-.13a22,22,0,0,1-11.71-9.73l8.68-4.81L292,177l12-6.66Z" transform="translate(-57.67 -18.1)" fill="#ea4969"/><path d="M322.4,474.27H274.61V453.42l15.17-1.34,15,9.4c17.23.74,17.6,12.79,17.6,12.79" transform="translate(-57.67 -18.1)" fill="#221c33"/><path d="M289.78,452.08l-15.17,1.34-3.13.28-3.34-144.56-.66-.14,9.69-45.59a145.77,145.77,0,0,0,29.55-5.28s-10.24,181-11.7,193.48Z" transform="translate(-57.67 -18.1)" fill="#25c1b2"/><path d="M292,177l-3.11,1.73-3.13-2.76a2.89,2.89,0,0,0,1.35-2.65h0Z" transform="translate(-57.67 -18.1)" fill="#e5b52e"/><path d="M278.76,82s8.25-.55-.42,10.38a45.81,45.81,0,0,0-.6-4.64c-3.15,1.13-8.11.86-8.38.84,3.88-1.84,7.32-4,9.4-6.58" transform="translate(-57.67 -18.1)" fill="#221c33"/><path d="M269.36,88.6c-10.07,4.79-23.13,7.23-23.13,7.23L245.77,88c16.49-6.16,27.15-19.64,27.15-19.64,4.5,5.56,5.84,13.71,5.84,13.71-2.08,2.54-5.52,4.74-9.4,6.58" transform="translate(-57.67 -18.1)" fill="#e2f2ef"/><path d="M263.91,263.85c4.64.07,9.09-.11,13.26-.44L267.48,309,237.17,451.61l-2.9-.47-18.46-3-4.19-.68s13.14-106.33,12.51-138c-.25-13,2.32-32.66,5.43-51.29h0a107.24,107.24,0,0,0,34.34,5.72" transform="translate(-57.67 -18.1)" fill="#25c1b2"/><path d="M275.63,161.68l0,.21a22.7,22.7,0,0,0-4.09,1.39s-6.23-5.75-5.89-8,9.94,6.41,9.94,6.41" transform="translate(-57.67 -18.1)" fill="#e5b52e"/><path d="M269,94.6s3.58,13.2,2.08,13.06A2.7,2.7,0,0,1,269,106l-2.43,1Z" transform="translate(-57.67 -18.1)" fill="#f29b44"/><path d="M270.05,124l.9,3.08c-12.12-.09-15.66-9-15.66-9,3.91,3,9.22,4.3,13.71,2.38l0,.09Z" transform="translate(-57.67 -18.1)" fill="#f29b44"/><path d="M249.48,106.48l-2.25,13.63-1.46-.82-2.05,8.33-.07,0a3.57,3.57,0,0,1-3.07,1.31,3.77,3.77,0,0,1-2.58-1c-.66-.7-.93-1.68-1.55-2.43-1.62-2-5.13-1.72-6.44-3.92a4.17,4.17,0,0,1,.08-3.87,20.2,20.2,0,0,1,2.34-3.28,7.08,7.08,0,0,0,1.7-3.6c.14-1.52-.56-3.06-.29-4.56.33-1.88,2.06-3.2,3.81-4a14.35,14.35,0,0,1,3.58-1c1.29-.18,2.79-.29,3.54-1.36l.23,0c.18,1.79,1.26,4.08,4.48,6.63" transform="translate(-57.67 -18.1)" fill="#221c33"/><path d="M234.27,451.14s4.27,35.45-15.65,29.61-2.81-32.63-2.81-32.63Z" transform="translate(-57.67 -18.1)" fill="#221c33"/><path d="M245.77,88l.46,7.88s13.06-2.44,23.13-7.23c3.88-1.84,7.32-4,9.4-6.58,0,0-1.34-8.15-5.84-13.71" transform="translate(-57.67 -18.1)" fill="none" stroke="#000" stroke-linecap="round" stroke-linejoin="round"/><path d="M269.35,88.6h0c.27,0,5.23.29,8.38-.84a45.81,45.81,0,0,1,.6,4.64c.43,5,.47,13.24-2.55,20.57-1.62,4-4.05,6.34-6.79,7.51-4.49,1.92-9.8.58-13.71-2.38a16.91,16.91,0,0,1-1.74-1.52" transform="translate(-57.67 -18.1)" fill="none" stroke="#000" stroke-linecap="round" stroke-linejoin="round"/><path d="M246.23,95.83a5.33,5.33,0,0,0-1.23,4c.18,1.79,1.26,4.08,4.48,6.63l-2.25,13.63" transform="translate(-57.67 -18.1)" fill="none" stroke="#000" stroke-linecap="round" stroke-linejoin="round"/><path d="M272.92,68.31a16.5,16.5,0,0,0,3.5-7.74A8.87,8.87,0,0,0,274,52.79c-2.92-2.66-7.73-2.36-11-.09s-5.11,6-6.11,9.87a9.75,9.75,0,0,0-5.82-4,12.23,12.23,0,0,0-7.1.51,11,11,0,0,0-5.26,4,7.74,7.74,0,0,0-1.14,6.39c.89,3,3.69,4.92,6.39,6.45a15.11,15.11,0,0,0-7.49,2.68,8.54,8.54,0,0,0-3.58,6.86,6,6,0,0,0,4.71,5.73,7.53,7.53,0,0,0,4.06-.68A13.32,13.32,0,0,0,245.77,88" transform="translate(-57.67 -18.1)" fill="none" stroke="#000" stroke-linecap="round" stroke-linejoin="round"/><polyline points="211.38 102.47 212.39 105.92 213.29 109 213.82 110.81 208.94 111.83 211.38 119.52 207.06 119.67 198.67 119.97 200.54 148.12" fill="none" stroke="#000" stroke-linecap="round" stroke-linejoin="round"/><path d="M329,150.3c6.14,4.37,11.72,8.61,14.37,11.36l-11.95,29.19L324.91,181" transform="translate(-57.67 -18.1)" fill="none" stroke="#000" stroke-linecap="round" stroke-linejoin="round"/><path d="M270.05,124l9.27.72v4.06s30.3.13,24.6,4.65c0,0,3.38,2.16,8.2,5.33l.07.05" transform="translate(-57.67 -18.1)" fill="none" stroke="#000" stroke-linecap="round" stroke-linejoin="round"/><path d="M331.44,190.85S314.63,199,303,199.29c-4.37.1-8-.93-9.69-4" transform="translate(-57.67 -18.1)" fill="none" stroke="#000" stroke-linecap="round" stroke-linejoin="round"/><path d="M306,193.63h0c-.78-.29-13.5-5-13.16-6.1s17.58.21,20.15,0,4-1.64,3.13-2.3-9.28-2.67-10.49-4.79,17.93,1.67,17.93,1.67a10.55,10.55,0,0,0,1-1.2c2.1-2.85,6.25-10.65.11-22l-2.2,1.22-15,8.31-3.4,1.88L292,177l-3.11,1.73-8.68,4.81A22,22,0,0,0,292,193.22" transform="translate(-57.67 -18.1)" fill="none" stroke="#000" stroke-linecap="round" stroke-linejoin="round"/><path d="M302,197a14.62,14.62,0,0,1-8.68-1.72c-.3-.15-.6-.32-.91-.51-1.16-.71-1.16-1.17-.43-1.46,2.36-.93,12.36,0,13.94.27" transform="translate(-57.67 -18.1)" fill="none" stroke="#000" stroke-linecap="round" stroke-linejoin="round"/><path d="M264.72,137.78V130l-17.49-9.86-1.46-.82-2.05,8.33-1,3.88s-17.93,3.8-21.92,5.1,0,4.08,0,4.08c-3.24.46-4.07,2.22-4.07,2.22s-6.4,55.41,2.41,55.41c3.21,0,10.08-1.89,17.53-4.3,8.22-2.66,17.13-5.94,22.58-8,3.16-1.2,5.15-2,5.15-2l-.53-3.59L262.08,168l-.35-2.39-3.53.59-19.75,3.3.83-16.4" transform="translate(-57.67 -18.1)" fill="none" stroke="#000" stroke-linecap="round" stroke-linejoin="round"/><path d="M303,199.29l3.68,58.84a145.77,145.77,0,0,1-29.55,5.28c-4.17.33-8.62.51-13.26.44a107.24,107.24,0,0,1-34.34-5.72" transform="translate(-57.67 -18.1)" fill="none" stroke="#000" stroke-linecap="round" stroke-linejoin="round"/><path d="M236.71,194l2.91,12.83s-5.59,24.6-10.06,51.29c-3.11,18.63-5.68,38.27-5.43,51.29.63,31.69-12.51,138-12.51,138l4.19.68,18.46,3,2.9.47L267.48,309l9.69-45.59,29.55-5.28s-10.24,181-11.7,193.48l-5.24.47-15.17,1.34-3.13.28-3.34-144.56" transform="translate(-57.67 -18.1)" fill="none" stroke="#000" stroke-linecap="round" stroke-linejoin="round"/><path d="M262.09,168s5.14-2.89,9.49-4.74a22.7,22.7,0,0,1,4.09-1.39,4.72,4.72,0,0,1,.59-.09c3.61-.31,9.26-.37,9.53,4.72,0,.12,0,.25,0,.38" transform="translate(-57.67 -18.1)" fill="none" stroke="#000" stroke-linecap="round" stroke-linejoin="round"/><path d="M263.91,180.45s5.95.53,10-3.29c0,0-.88,2.85.58,2.92s7.3-.59,7.85-2.5.63-5.21-.76-5.42" transform="translate(-57.67 -18.1)" fill="none" stroke="#000" stroke-linecap="round" stroke-linejoin="round"/><path d="M283.62,169a9.79,9.79,0,0,1,3.19,3.2,3.18,3.18,0,0,1,.34,1.11,2.89,2.89,0,0,1-1.35,2.65,11.38,11.38,0,0,1-3.43,1.66" transform="translate(-57.67 -18.1)" fill="none" stroke="#000" stroke-linecap="round" stroke-linejoin="round"/><path d="M281.75,165.21a20,20,0,0,1,4,1.31c.85.42,1.53.93,1.66,1.5a8.46,8.46,0,0,1-.64,4.14" transform="translate(-57.67 -18.1)" fill="none" stroke="#000" stroke-linecap="round" stroke-linejoin="round"/><path d="M294.05,146.79c0,.21,5.83,7,8.73,14,1.34,3.26,2.06,6.64,1.27,9.46" transform="translate(-57.67 -18.1)" fill="none" stroke="#000" stroke-linecap="round" stroke-linejoin="round"/><line x1="251.96" y1="145.79" x2="245.12" y2="142.73" fill="none" stroke="#000" stroke-linecap="round" stroke-linejoin="round"/><path d="M259.29,186s6.67,47.3,4.62,77.83v0" transform="translate(-57.67 -18.1)" fill="none" stroke="#000" stroke-linecap="round" stroke-linejoin="round"/><path d="M276.39,97.67c.06,1.39-.67,2.55-1.64,2.6s-1.8-1-1.87-2.44.66-2.55,1.63-2.6,1.81,1,1.88,2.44" transform="translate(-57.67 -18.1)" fill="#221c33"/><path d="M265,97.46c.06,1.39-.67,2.56-1.64,2.6s-1.8-1-1.87-2.43.67-2.55,1.63-2.6,1.81,1,1.88,2.43" transform="translate(-57.67 -18.1)" fill="#221c33"/><path d="M265.37,92.05a1,1,0,0,0-.41-.64,1.14,1.14,0,0,0-.75-.16,7.07,7.07,0,0,0-2.17.55,4.26,4.26,0,0,0-2,1.47,1,1,0,0,0,1.64,1.14,1.34,1.34,0,0,1,.11-.14,2.69,2.69,0,0,1,.41-.33,6.28,6.28,0,0,1,1-.47,5.83,5.83,0,0,1,1.31-.25,1,1,0,0,0,.79-1.17" transform="translate(-57.67 -18.1)" fill="#221c33"/><path d="M276.87,92.8a5.51,5.51,0,0,0-1.73-1.17,6,6,0,0,0-2.25-.49,1,1,0,0,0-.9,1.09,1,1,0,0,0,.35.68,1.14,1.14,0,0,0,.72.22h-.21a4.79,4.79,0,0,1,1.12.2,4.92,4.92,0,0,1,.87.41,4.74,4.74,0,0,1,.74.6,1,1,0,0,0,.73.23,1,1,0,0,0,.68-.35,1,1,0,0,0,.23-.73,1.18,1.18,0,0,0-.35-.68" transform="translate(-57.67 -18.1)" fill="#221c33"/><path d="M241.89,272.47l-3-5.28a1.49,1.49,0,0,0-1-.61,1.5,1.5,0,0,0-1.5,2.34l3.05,5.29a1.55,1.55,0,0,0,1,.61,1.59,1.59,0,0,0,1.14-.25,1.55,1.55,0,0,0,.35-2.1" transform="translate(-57.67 -18.1)" fill="#4fe0d5"/><path d="M257.9,268.63a1.54,1.54,0,0,0-2,.72l-3,5.85a1.51,1.51,0,0,0,.72,2,1.54,1.54,0,0,0,2-.71c1-2,2-3.91,3-5.86a1.52,1.52,0,0,0-.71-2" transform="translate(-57.67 -18.1)" fill="#4fe0d5"/><path d="M265.69,282.84l-3.38-4.7a1.5,1.5,0,0,0-2.45,1.74l3.38,4.69a1.5,1.5,0,1,0,2.45-1.73" transform="translate(-57.67 -18.1)" fill="#4fe0d5"/><path d="M254.79,282.44a1.54,1.54,0,0,0-1.74,1.2l-2.51,7.79a1.49,1.49,0,0,0,1.21,1.74,1.54,1.54,0,0,0,1.74-1.2c.84-2.6,1.67-5.19,2.51-7.78a1.5,1.5,0,0,0-1.21-1.75" transform="translate(-57.67 -18.1)" fill="#4fe0d5"/><path d="M244.13,290l-3.9-6.39a1.51,1.51,0,0,0-2.1-.35,1.54,1.54,0,0,0-.35,2.09l3.9,6.38a1.52,1.52,0,0,0,2.1.36,1.54,1.54,0,0,0,.35-2.09" transform="translate(-57.67 -18.1)" fill="#4fe0d5"/><path d="M232.58,291.62a1.54,1.54,0,0,0-1.74,1.21l-2.31,7.76a1.51,1.51,0,0,0,1.21,1.74,1.54,1.54,0,0,0,1.75-1.2c.76-2.59,1.53-5.17,2.3-7.76a1.52,1.52,0,0,0-1.21-1.75" transform="translate(-57.67 -18.1)" fill="#4fe0d5"/><path d="M246,305.15l-6.12-2.79a1.5,1.5,0,0,0-1.28,2.72l6.11,2.79a1.51,1.51,0,0,0,1.29-2.72" transform="translate(-57.67 -18.1)" fill="#4fe0d5"/><path d="M258.8,297a1.52,1.52,0,0,0-2,.72l-2,4.72a1.5,1.5,0,0,0,2.72,1.28c.64-1.57,1.29-3.15,1.94-4.72a1.53,1.53,0,0,0-.71-2" transform="translate(-57.67 -18.1)" fill="#4fe0d5"/><path d="M257.06,318.15l-3.87-5.3a1.5,1.5,0,0,0-2.45,1.74l3.87,5.29a1.5,1.5,0,1,0,2.45-1.73" transform="translate(-57.67 -18.1)" fill="#4fe0d5"/><path d="M267.62,294.13a1.54,1.54,0,0,0-1.75,1.2c-.56,2-1.11,4.08-1.67,6.11a1.51,1.51,0,0,0,1.2,1.75,1.54,1.54,0,0,0,1.75-1.2c.56-2,1.11-4.08,1.67-6.12a1.5,1.5,0,0,0-1.2-1.74" transform="translate(-57.67 -18.1)" fill="#4fe0d5"/><path d="M237.7,312.52a1.53,1.53,0,0,0-1.62-1.37l-6.37,1a1.5,1.5,0,1,0,.26,3l6.37-1a1.52,1.52,0,0,0,1.36-1.62" transform="translate(-57.67 -18.1)" fill="#4fe0d5"/><path d="M246.59,323.82c-.28-2.32-.57-4.63-.85-6.95a1.5,1.5,0,0,0-3,.26c.28,2.32.57,4.64.85,6.95a1.5,1.5,0,1,0,3-.26" transform="translate(-57.67 -18.1)" fill="#4fe0d5"/><path d="M237.05,331.76l-2.78-5.84a1.62,1.62,0,0,0-.76-.83,1.5,1.5,0,0,0-2,1.88l2.78,5.84a1.58,1.58,0,0,0,.76.83,1.5,1.5,0,0,0,2.05-1.88" transform="translate(-57.67 -18.1)" fill="#4fe0d5"/><path d="M255.67,327.93a1.54,1.54,0,0,0-2.09-.36L247.5,331a1.51,1.51,0,0,0-.35,2.09,1.54,1.54,0,0,0,2.09.36q3-1.71,6.08-3.4a1.51,1.51,0,0,0,.35-2.09" transform="translate(-57.67 -18.1)" fill="#4fe0d5"/><path d="M254.88,338.28a1.5,1.5,0,0,0-3,.26l.27,5a1.52,1.52,0,0,0,1.63,1.36,1.54,1.54,0,0,0,1.36-1.63l-.27-5" transform="translate(-57.67 -18.1)" fill="#4fe0d5"/><path d="M244.43,339.23a1.51,1.51,0,0,0-1-.61,1.49,1.49,0,0,0-1.14.25,1.77,1.77,0,0,0-.6.95l-1.38,4.46a1.51,1.51,0,0,0,2.35,1.49,1.77,1.77,0,0,0,.6-.95l1.38-4.46a1.52,1.52,0,0,0-.25-1.13" transform="translate(-57.67 -18.1)" fill="#4fe0d5"/><path d="M232.33,345.39,231,339.27a1.51,1.51,0,0,0-1.93-.88,1.53,1.53,0,0,0-.84.76,1.87,1.87,0,0,0-.05,1.17c.47,2,.93,4.07,1.39,6.11a1.53,1.53,0,0,0,.76.84,1.58,1.58,0,0,0,1.17.05,1.53,1.53,0,0,0,.83-.77,1.71,1.71,0,0,0,.05-1.16" transform="translate(-57.67 -18.1)" fill="#4fe0d5"/><path d="M236.3,355.25a1.52,1.52,0,0,0-1.62-1.37l-7.23,1.4a1.5,1.5,0,1,0,.26,3l7.23-1.4a1.54,1.54,0,0,0,1.36-1.62" transform="translate(-57.67 -18.1)" fill="#4fe0d5"/><path d="M252.32,357.42l-6.3-3.89a1.53,1.53,0,0,0-1.17,0,1.51,1.51,0,0,0-.83.76,1.55,1.55,0,0,0,.72,2l6.3,3.89a1.51,1.51,0,0,0,1.16.05,1.53,1.53,0,0,0,.84-.76,1.55,1.55,0,0,0-.72-2" transform="translate(-57.67 -18.1)" fill="#4fe0d5"/><path d="M243,360.09a1.53,1.53,0,0,0-1.75,1.21c-.5,2.28-1,4.57-1.49,6.85a1.5,1.5,0,1,0,3,.54c.49-2.28,1-4.57,1.48-6.85a1.51,1.51,0,0,0-1.2-1.75" transform="translate(-57.67 -18.1)" fill="#4fe0d5"/><path d="M233.46,374.19l-3.21-6.08a1.73,1.73,0,0,0-.76-.84,1.63,1.63,0,0,0-1.17,0,1.53,1.53,0,0,0-.83.77,1.39,1.39,0,0,0-.05,1.16l3.21,6.09a1.64,1.64,0,0,0,.77.83,1.49,1.49,0,0,0,2-.72,1.38,1.38,0,0,0,.05-1.16" transform="translate(-57.67 -18.1)" fill="#4fe0d5"/><path d="M247.31,374.12a1.54,1.54,0,0,0-2,.71l-2.78,5.38a1.52,1.52,0,0,0,.72,2,1.53,1.53,0,0,0,2-.72q1.39-2.69,2.78-5.37a1.51,1.51,0,0,0-.71-2" transform="translate(-57.67 -18.1)" fill="#4fe0d5"/><path d="M237,389.38l-2.58-6.49a1.5,1.5,0,1,0-2.81,1.05l2.58,6.49a1.51,1.51,0,0,0,1.92.88,1.52,1.52,0,0,0,.89-1.93" transform="translate(-57.67 -18.1)" fill="#4fe0d5"/><path d="M226,389.07a1.55,1.55,0,0,0-1-.61,1.52,1.52,0,0,0-1.75,1.21c-.15,2-.29,4.07-.44,6.11a1.64,1.64,0,0,0,.25,1.14,1.55,1.55,0,0,0,1,.61,1.51,1.51,0,0,0,1.74-1.21c.15-2,.29-4.07.44-6.11a1.65,1.65,0,0,0-.25-1.14" transform="translate(-57.67 -18.1)" fill="#4fe0d5"/><path d="M245.2,396.1c-.24-2-.49-4-.73-5.93a1.5,1.5,0,1,0-3,.26c.24,2,.49,3.95.73,5.93a1.5,1.5,0,0,0,3-.26" transform="translate(-57.67 -18.1)" fill="#4fe0d5"/><path d="M236.75,403.8l-5.74-.47a1.59,1.59,0,0,0-1.14.25,1.55,1.55,0,0,0-.61.95,1.52,1.52,0,0,0,1.21,1.75l5.73.47a1.63,1.63,0,0,0,1.14-.25,1.5,1.5,0,0,0-.59-2.7" transform="translate(-57.67 -18.1)" fill="#4fe0d5"/><path d="M227.37,411.64a1.54,1.54,0,0,0-1.74,1.21l-1.92,6.65a1.51,1.51,0,0,0,1.2,1.75,1.54,1.54,0,0,0,1.75-1.21l1.92-6.65a1.51,1.51,0,0,0-1.21-1.75" transform="translate(-57.67 -18.1)" fill="#4fe0d5"/><path d="M236.86,422.79c-.25-1.49-.49-3-.74-4.45a1.62,1.62,0,0,0-.53-1,1.57,1.57,0,0,0-1.1-.35,1.52,1.52,0,0,0-1.36,1.63c.25,1.48.49,3,.74,4.45a1.57,1.57,0,0,0,.53,1,1.5,1.5,0,0,0,2.46-1.27" transform="translate(-57.67 -18.1)" fill="#4fe0d5"/><path d="M227.1,426.19a1.51,1.51,0,0,0-2,.72l-2.23,5.56a1.5,1.5,0,0,0,2.72,1.28l2.22-5.56a1.53,1.53,0,0,0-.72-2" transform="translate(-57.67 -18.1)" fill="#4fe0d5"/><path d="M222.08,405.75a1.55,1.55,0,0,0-1-.61,1.52,1.52,0,0,0-1.75,1.21l-.49,5.36a1.69,1.69,0,0,0,.25,1.14,1.5,1.5,0,0,0,2.7-.59c.17-1.79.33-3.58.49-5.37a1.59,1.59,0,0,0-.25-1.14" transform="translate(-57.67 -18.1)" fill="#4fe0d5"/><path d="M242.31,416.47c-.29-2.28-.59-4.57-.88-6.86a1.5,1.5,0,0,0-3,.26q.45,3.44.88,6.87a1.5,1.5,0,0,0,3-.27" transform="translate(-57.67 -18.1)" fill="#4fe0d5"/><path d="M221.25,438.14l-2.74-4.65a1.49,1.49,0,0,0-.95-.61,1.5,1.5,0,0,0-1.75,1.2,1.69,1.69,0,0,0,.25,1.14l2.74,4.66a1.58,1.58,0,0,0,1,.61,1.55,1.55,0,0,0,1.14-.26,1.47,1.47,0,0,0,.6-1,1.65,1.65,0,0,0-.25-1.14" transform="translate(-57.67 -18.1)" fill="#4fe0d5"/><path d="M236.26,429.57a1.52,1.52,0,0,0-2,.71l-2.62,5.37a1.51,1.51,0,0,0,.71,2,1.53,1.53,0,0,0,2-.71l2.62-5.37a1.52,1.52,0,0,0-.72-2" transform="translate(-57.67 -18.1)" fill="#4fe0d5"/><path d="M230.26,443.87l-4.82-.93a1.5,1.5,0,1,0-.54,2.95l4.81.93a1.5,1.5,0,0,0,.55-2.95" transform="translate(-57.67 -18.1)" fill="#4fe0d5"/><path d="M273,270.17a1.51,1.51,0,0,0-1.62-1.36l-6.67,1.25a1.53,1.53,0,0,0-1.37,1.62A1.51,1.51,0,0,0,265,273l6.67-1.25a1.52,1.52,0,0,0,1.36-1.62" transform="translate(-57.67 -18.1)" fill="#4fe0d5"/><path d="M232.56,272.16a1.53,1.53,0,0,0-1.75,1.2q-.28,3.34-.59,6.67a1.5,1.5,0,1,0,2.95.54l.6-6.66a1.55,1.55,0,0,0-1.21-1.75" transform="translate(-57.67 -18.1)" fill="#4fe0d5"/><path d="M287.2,273.31l-5.28-4.73a1.5,1.5,0,1,0-1.92,2.3l5.28,4.73a1.51,1.51,0,0,0,2.11-.18,1.53,1.53,0,0,0-.19-2.12" transform="translate(-57.67 -18.1)" fill="#4fe0d5"/><path d="M301.54,266.41a1.52,1.52,0,0,0-2,.72l-3.1,7.48a1.5,1.5,0,1,0,2.71,1.29l3.11-7.49a1.54,1.54,0,0,0-.72-2" transform="translate(-57.67 -18.1)" fill="#4fe0d5"/><path d="M294.16,285.73l-.72-5.85a1.5,1.5,0,0,0-3,.26q.36,2.92.73,5.85a1.5,1.5,0,1,0,3-.26" transform="translate(-57.67 -18.1)" fill="#4fe0d5"/><path d="M297.09,265.33a1.55,1.55,0,0,0-1.93-.88l-8.34,1.94a1.5,1.5,0,0,0-.88,1.93,1.55,1.55,0,0,0,1.93.89l8.34-1.95a1.51,1.51,0,0,0,.88-1.93" transform="translate(-57.67 -18.1)" fill="#4fe0d5"/><path d="M281.22,281.33a1.52,1.52,0,0,0-1.75,1.21c-.18,2.31-.37,4.63-.55,6.95a1.5,1.5,0,0,0,2.95.54c.18-2.32.37-4.63.56-6.95a1.55,1.55,0,0,0-1.21-1.75" transform="translate(-57.67 -18.1)" fill="#4fe0d5"/><path d="M301.57,295.11l-4.21-3.29a1.5,1.5,0,0,0-1.93,2.3l4.21,3.28a1.5,1.5,0,1,0,1.93-2.29" transform="translate(-57.67 -18.1)" fill="#4fe0d5"/><path d="M291,296.46a1.52,1.52,0,0,0-2,.72q-1.4,2.91-2.78,5.84A1.5,1.5,0,0,0,289,304.3l2.78-5.84a1.52,1.52,0,0,0-.72-2" transform="translate(-57.67 -18.1)" fill="#4fe0d5"/><path d="M280.77,305.6l-2.49-5.84a1.5,1.5,0,1,0-2.81,1l2.49,5.85a1.5,1.5,0,0,0,2.81-1" transform="translate(-57.67 -18.1)" fill="#4fe0d5"/><path d="M285,314.77a1.52,1.52,0,0,0-1.62-1.36l-8.33,1a1.5,1.5,0,0,0,.27,3l8.32-1a1.52,1.52,0,0,0,1.36-1.63" transform="translate(-57.67 -18.1)" fill="#4fe0d5"/><path d="M297.59,304.12a1.53,1.53,0,0,0-1.75,1.21l-.84,7.23a1.5,1.5,0,0,0,2.95.54l.84-7.23a1.53,1.53,0,0,0-1.2-1.75" transform="translate(-57.67 -18.1)" fill="#4fe0d5"/><path d="M295.43,322.73l-5.81-2.84a1.51,1.51,0,0,0-1.29,2.72l5.81,2.83a1.5,1.5,0,0,0,1.29-2.71" transform="translate(-57.67 -18.1)" fill="#4fe0d5"/><path d="M282.13,324.26a1.52,1.52,0,0,0-2,.71q-1.26,3.48-2.5,6.95a1.5,1.5,0,1,0,2.71,1.29c.83-2.32,1.67-4.64,2.5-6.95a1.54,1.54,0,0,0-.72-2" transform="translate(-57.67 -18.1)" fill="#4fe0d5"/><path d="M281,348.7l-2.81-7.5a1.5,1.5,0,1,0-2.81,1.05q1.4,3.75,2.81,7.5a1.52,1.52,0,0,0,1.92.88,1.53,1.53,0,0,0,.89-1.93" transform="translate(-57.67 -18.1)" fill="#4fe0d5"/><path d="M274.88,324.66a1.51,1.51,0,0,0-1.62-1.37,1.53,1.53,0,0,0-1.36,1.63c.07,2.78.15,5.56.22,8.34a1.5,1.5,0,0,0,3-.26Z" transform="translate(-57.67 -18.1)" fill="#4fe0d5"/><path d="M293.85,335.55a1.53,1.53,0,0,0-1.63-1.36l-7.49.7a1.5,1.5,0,0,0,.26,3l7.49-.7a1.54,1.54,0,0,0,1.37-1.63" transform="translate(-57.67 -18.1)" fill="#4fe0d5"/><path d="M298.26,333.33a1.51,1.51,0,0,0-1.74,1.2c-.28,2.6-.55,5.19-.83,7.79a1.5,1.5,0,0,0,2.95.54c.28-2.6.55-5.19.83-7.79a1.53,1.53,0,0,0-1.21-1.74" transform="translate(-57.67 -18.1)" fill="#4fe0d5"/><path d="M291.5,353.19l-2.82-6.38a1.5,1.5,0,1,0-2.81,1.05l2.81,6.38a1.5,1.5,0,0,0,2.82-1.05" transform="translate(-57.67 -18.1)" fill="#4fe0d5"/><path d="M284,359.23l-7.78-1.39a1.5,1.5,0,0,0-.55,3l7.79,1.39a1.5,1.5,0,1,0,.54-2.95" transform="translate(-57.67 -18.1)" fill="#4fe0d5"/><path d="M299,358.73a1.53,1.53,0,0,0-.76-.84,1.55,1.55,0,0,0-2,.72l-4.17,6.67a1.53,1.53,0,0,0,0,1.17,1.51,1.51,0,0,0,2.77.11q2.08-3.33,4.16-6.67a1.46,1.46,0,0,0,0-1.16" transform="translate(-57.67 -18.1)" fill="#4fe0d5"/><path d="M285.49,373.42l-4.71-6.13a1.53,1.53,0,0,0-2.1-.35,1.51,1.51,0,0,0-.35,2.09l4.71,6.12a1.5,1.5,0,1,0,2.45-1.73" transform="translate(-57.67 -18.1)" fill="#4fe0d5"/><path d="M294.12,375a1.53,1.53,0,0,0-.77-.83,1.5,1.5,0,0,0-2,.71l-2.2,6.59a1.66,1.66,0,0,0-.05,1.16,1.58,1.58,0,0,0,.77.84,1.51,1.51,0,0,0,2-.72l2.2-6.59a1.65,1.65,0,0,0,.05-1.16" transform="translate(-57.67 -18.1)" fill="#4fe0d5"/><path d="M283.74,385.53l-5.87-4.13a1.62,1.62,0,0,0-1.1-.34,1.5,1.5,0,0,0-.83,2.64l5.87,4.13a1.6,1.6,0,0,0,1.09.34,1.5,1.5,0,0,0,.84-2.64" transform="translate(-57.67 -18.1)" fill="#4fe0d5"/><path d="M294.29,388.92a1.54,1.54,0,0,0-1.75,1.2l-1.39,5.56a1.52,1.52,0,0,0,1.21,1.75,1.54,1.54,0,0,0,1.74-1.21q.7-2.78,1.39-5.56a1.5,1.5,0,0,0-1.2-1.74" transform="translate(-57.67 -18.1)" fill="#4fe0d5"/><path d="M282.06,397.53l-7.23-1.67a1.51,1.51,0,0,0-1.75,1.2,1.54,1.54,0,0,0,1.21,1.75l7.22,1.67a1.5,1.5,0,0,0,.55-3" transform="translate(-57.67 -18.1)" fill="#4fe0d5"/><path d="M288.12,399.71a1.51,1.51,0,0,0-1.63-1.36,1.53,1.53,0,0,0-1.36,1.62q.11,3.61.22,7.23a1.49,1.49,0,0,0,1.62,1.36,1.52,1.52,0,0,0,1.36-1.62l-.21-7.23" transform="translate(-57.67 -18.1)" fill="#4fe0d5"/><path d="M282.93,413.37l-5.86-2.17a1.63,1.63,0,0,0-1.17-.05,1.56,1.56,0,0,0-.83.77,1.51,1.51,0,0,0,.72,2l5.86,2.17a1.6,1.6,0,0,0,1.16.05,1.53,1.53,0,0,0,.83-.77,1.51,1.51,0,0,0-.71-2" transform="translate(-57.67 -18.1)" fill="#4fe0d5"/><path d="M295.42,420.73q-.82-3.62-1.67-7.23a1.5,1.5,0,0,0-1.93-.88,1.54,1.54,0,0,0-.88,1.92c.56,2.41,1.11,4.82,1.67,7.23a1.51,1.51,0,0,0,1.93.89,1.55,1.55,0,0,0,.88-1.93" transform="translate(-57.67 -18.1)" fill="#4fe0d5"/><path d="M288.71,424.05a1.55,1.55,0,0,0-.76-.83,1.5,1.5,0,0,0-2,.71L284,429.77a1.68,1.68,0,0,0-.05,1.17,1.51,1.51,0,0,0,2.77.11c.64-1.94,1.29-3.89,1.93-5.84a1.66,1.66,0,0,0,0-1.16" transform="translate(-57.67 -18.1)" fill="#4fe0d5"/><path d="M280.13,433c-.65-2.13-1.29-4.27-1.94-6.4a1.52,1.52,0,0,0-1.93-.88,1.54,1.54,0,0,0-.89,1.93l1.95,6.39a1.51,1.51,0,0,0,1.93.89,1.53,1.53,0,0,0,.88-1.93" transform="translate(-57.67 -18.1)" fill="#4fe0d5"/><path d="M285.13,442.4a1.53,1.53,0,0,0-1.93-.88l-6.64,1.75a1.52,1.52,0,0,0-.89,1.93,1.55,1.55,0,0,0,1.93.89l6.65-1.76a1.5,1.5,0,0,0,.88-1.93" transform="translate(-57.67 -18.1)" fill="#4fe0d5"/><path d="M293.52,443.92c-.38-2.69-.75-5.37-1.13-8.06a1.5,1.5,0,0,0-3,.26c.38,2.69.75,5.37,1.13,8.06a1.5,1.5,0,0,0,3-.26" transform="translate(-57.67 -18.1)" fill="#4fe0d5"/><path d="M495.62,130l-15,12.87-2.22.08-.09-2.31c10.72-8.83,7.43-14.75,7.43-14.75-1.9,6.21-5.77,9.88-10.18,10.15-4.64.28-9.87-3.17-14.06-11.35-4.06-7.91-5.48-14-5.85-18.14a17.43,17.43,0,0,1,.39-6.74s13.65,10.81,27.3,7c0,0,.05-5.89,3.4-5.65s6,7.68,2.82,12.06Z" transform="translate(-57.67 -18.1)" fill="#f29b44"/><path d="M470.05,127.33l8.22-7.21s2.31,3.11-1.3,6.71a4.82,4.82,0,0,1-6.92.5" transform="translate(-57.67 -18.1)" fill="#fff"/><path d="M523.5,151.41c2-1,1.18-2.46-1-4-5.85-4.1-21.46-9-21.46-9l-3.58-10L495.62,130l-15,12.87,2.11,6.68h-4.09l-.24-6.6-.09-2.31,0-1.54h-4.14l-.38,4.15s-30,1.31-22.79,6.3c0,0-4.71,4.24-3.2,7.35l-1.09,19.87a59.45,59.45,0,0,0-2.52,7.7L432,173.07l-1.37,1.38-7.83,7.82-3.23,3.23,32.59,40.68-.2,24.49s4.24,2.57,12.7,3.66c7.71,1,18.9.79,33.62-3.64.52-8.38,5.88-15.29,5.88-15.29l10.33,13.2,2.53-3.18,36.27-45.6Zm-15.71,73.81-3.88-13.35,7.78-25.23,12.38,16Z" transform="translate(-57.67 -18.1)" fill="#fff"/><path d="M429.58,172.75a2.33,2.33,0,0,1,.94,1.63l.07.07-7.83,7.82a42,42,0,0,1-13.89-2.59,6.93,6.93,0,0,1-3.94-2.75,4.55,4.55,0,0,1-.53-2.07,7.52,7.52,0,0,1,.22-2.06,12.14,12.14,0,0,1,2-4.31,2.63,2.63,0,0,1,2.18-1.33c.83.09,1.4.85,1.87,1.55l1.77,2.66a10.71,10.71,0,0,1,3.9-7.38c.57-.46,1.36-.88,2-.51a2,2,0,0,1,.74,1.54,28.18,28.18,0,0,1,.26,3.67,10.16,10.16,0,0,1,2.92-3.2,2.26,2.26,0,0,1,2.19-.47,2.32,2.32,0,0,1,.88,2.18,19,19,0,0,1-.1,2h0a34.89,34.89,0,0,1,4.31,3.55" transform="translate(-57.67 -18.1)" fill="#f29b44"/><path d="M338.39,166.76c3.16,5.18,12.78,10.76,24.92,13.92,12.37,3.23,23.7,3,28.86-.17a6.65,6.65,0,0,0,2.17-2h0l.16-.05c-1.63,3.75-8.41,13.67-33.47,7.21-30.51-7.86-23.77-22.12-23.77-22.12h0a6.8,6.8,0,0,0,1.11,3.19" transform="translate(-57.67 -18.1)" fill="#b7b7b7"/><path d="M392.12,180.42l.05.09c-5.16,3.15-16.49,3.4-28.86.17-12.14-3.16-21.76-8.74-24.92-13.92a49,49,0,0,1,20.1-2A63.86,63.86,0,0,1,377.44,170c5.54,2.45,10.94,5.64,14.68,10.41" transform="translate(-57.67 -18.1)" fill="#606060"/><path d="M572,443.9,581.22,458,569.08,481.4H540.54s-1.55-14.55,12.72-15.26l6.43-15.07h0Z" transform="translate(-57.67 -18.1)" fill="#221c33"/><path d="M531.51,358.22,575,442.13l-3,1.77-12.29,7.16h0l-8.41,4.9-53.09-91-7.66-27.83,35,.33L515,253.68l4.15-.94S533.76,289,531.51,358.22" transform="translate(-57.67 -18.1)" fill="#ea4969"/><path d="M515,253.68l10.55,83.82-35-.33-5.46-.05-32.95-.3-7.54-.07s4.62-78.83,4.51-81.94a4.36,4.36,0,0,1,2.83-4.13s4.24,2.56,12.7,3.65c7.71,1,18.91.79,33.62-3.64a18.68,18.68,0,0,0,0,3c.83,9.65,3,16.5,5.41,1.13,0,0,.21,7.88-.07,11.45s-3.13,9-2.45,10.73,3-.49,3-.49-.17,2.44,1.82,1.17a3.83,3.83,0,0,0,2-2.94s2.15.39,3.25-4.79c.7-3.33,1.86-11.15,2.6-16.34Z" transform="translate(-57.67 -18.1)" fill="#221c33"/><path d="M525,139.93c.44,2.74-.07,6.07-2.51,7.4l0,.07c-5.85-4.1-21.46-9-21.46-9l-3.58-10L495.62,130l-6-16.79c3.15-4.38.52-11.82-2.82-12.06s-3.4,5.65-3.4,5.65c-13.65,3.82-27.3-7-27.3-7a17.35,17.35,0,0,0-.39,6.73l-.48,0a14,14,0,0,1-5.83-6.58,2.07,2.07,0,0,1-.24-1.16c.14-.73.92-1.12,1.59-1.44,6.54-3.13,10.9-9.78,17.51-12.79,7.95-3.62,17.76-1,24.31,4.78a23,23,0,0,1,6.65,9.51,15.71,15.71,0,0,1-.26,11.47c-.49,1.1-1.15,2.32-.74,3.46a3.64,3.64,0,0,0,1.21,1.46c3.07,2.57,6.73,4.27,10.2,6.25,7.19,4.11,14.09,10.23,15.41,18.4" transform="translate(-57.67 -18.1)" fill="#221c33"/><path d="M517,245.42l2.19,7.32-4.15.94-1.26-.08c.41-2.91.69-5,.69-5Z" transform="translate(-57.67 -18.1)" fill="#221c33"/><path d="M498.24,250.69c.52-8.38,5.88-15.29,5.88-15.29l10.33,13.2s-.28,2.09-.69,5c-.74,5.19-1.9,13-2.6,16.34-1.1,5.18-3.25,4.79-3.25,4.79a3.83,3.83,0,0,1-2,2.94c-2,1.27-1.82-1.17-1.82-1.17s-2.28,2.26-3,.49,2.17-7.17,2.45-10.73.07-11.45.07-11.45c-2.43,15.37-4.58,8.52-5.41-1.13a18.68,18.68,0,0,1,0-3" transform="translate(-57.67 -18.1)" fill="#f29b44"/><path d="M485.77,125.86s3.28,5.92-7.43,14.75l0-1.53h-2.7V136c4.41-.27,8.28-3.94,10.18-10.15" transform="translate(-57.67 -18.1)" fill="#cc711f"/><polygon points="427.4 319.02 420.44 448.04 417.89 448.04 394.46 448.04 394.46 318.71 427.4 319.02" fill="#ea4969"/><polygon points="425.1 131.42 421 131.42 420.77 124.81 422.98 124.73 425.1 131.42" fill="#f29b44"/><path d="M475.56,466.14V481.4H428.67s2.54-16.24,17.51-11.59l5.94-3.67Z" transform="translate(-57.67 -18.1)" fill="#221c33"/><path d="M465.81,112.22l4.6,10.37s-4,2-5.16.86.56-11.23.56-11.23" transform="translate(-57.67 -18.1)" fill="#cc711f"/><path d="M431.3,167.2s1.79,3.33.66,5.87l-1.37,1.38-.07-.07a2.33,2.33,0,0,0-.94-1.63,34.89,34.89,0,0,0-4.31-3.55h0a19,19,0,0,0,.1-2Z" transform="translate(-57.67 -18.1)" fill="#ea4969"/><path d="M408.8,167.16s2.53-5.41,7.54-3.17a10.68,10.68,0,0,0-3.9,7.38l-1.77-2.66c-.47-.7-1-1.46-1.87-1.55" transform="translate(-57.67 -18.1)" fill="#f29b44"/><path d="M395.23,173.64l11.39-5.15a12.14,12.14,0,0,0-2,4.31,7.52,7.52,0,0,0-.22,2.06h0l-7.09,3.67-.34-.8Z" transform="translate(-57.67 -18.1)" fill="#ea4969"/><path d="M369.07,158.59C385,162.73,396.55,171,395,177.14a2.53,2.53,0,0,1-.08.26,4.88,4.88,0,0,1-.54,1.13h0a6.65,6.65,0,0,1-2.17,2l-.05-.09c-3.74-4.77-9.14-8-14.68-10.41a63.86,63.86,0,0,0-18.95-5.25,49,49,0,0,0-20.1,2,6.84,6.84,0,0,1-1.11-3.19,4.46,4.46,0,0,1,.13-1.42c1.59-6.11,15.77-7.7,31.66-3.56" transform="translate(-57.67 -18.1)" fill="#878787"/><path d="M382.06,140c1.93,2,4,4.37,3.9,7.17a7.07,7.07,0,0,1-1.9,4.28,12.21,12.21,0,0,1-5.35,3.48,21.71,21.71,0,0,1-4.34-.14,33,33,0,0,1-11-3.74,29.05,29.05,0,0,1-6.7-4.64,25.6,25.6,0,0,1-5.91-9.3c-3.16-8.19-2.89-18,2.11-25.23a11.7,11.7,0,0,1,2.39-2.67,17.86,17.86,0,0,1,4.28-1.51,10.82,10.82,0,0,1,4.77,0,6.09,6.09,0,0,1,3.82,2.73,8.72,8.72,0,0,1,.87,2.76c.6,3.28.72,6.65,1.61,9.85,1.82,6.65,6.66,12,11.42,17" transform="translate(-57.67 -18.1)" fill="#ffda66"/><path d="M374.37,154.78a21.79,21.79,0,0,0,4.35.14,14.92,14.92,0,0,1-2.26.56,19.83,19.83,0,0,1-8.69-.68,32,32,0,0,1-14.72-9.57,31.15,31.15,0,0,1-7.41-14.08,24,24,0,0,1,.31-11.34,19,19,0,0,1,9.34-10.61,11.7,11.7,0,0,0-2.39,2.67c-5,7.23-5.27,17-2.11,25.23a25.6,25.6,0,0,0,5.91,9.3,29.05,29.05,0,0,0,6.7,4.64,33,33,0,0,0,11,3.74" transform="translate(-57.67 -18.1)" fill="#e5b52e"/><path d="M486.11,124.67c-.1.4-.22.81-.34,1.19-1.9,6.21-5.77,9.88-10.18,10.15-4.63.28-9.87-3.17-14.06-11.34-4.06-7.92-5.48-14-5.85-18.15a17.35,17.35,0,0,1,.39-6.73s13.65,10.8,27.3,7c0,0,.05-5.89,3.4-5.65s6,7.68,2.82,12.06l6,16.79" transform="translate(-57.67 -18.1)" fill="none" stroke="#000" stroke-linecap="round" stroke-linejoin="round"/><path d="M482.76,149.52h-4.09l-.24-6.6-.09-2.31,0-1.53h-4.14l-.38,4.14s-30,1.31-22.79,6.3c0,0-4.71,4.24-3.2,7.35l-1.08,19.87,0,.66" transform="translate(-57.67 -18.1)" fill="none" stroke="#000" stroke-linecap="round" stroke-linejoin="round"/><path d="M503.53,176.09l8.16,10.55,12.38,16L507.8,225.22,502.22,233l1.9,2.44,10.33,13.2,2.53-3.18,36.28-45.6L523.5,151.41c2-1,1.18-2.46-1-4-5.85-4.1-21.46-9-21.46-9l-3.58-10L495.62,130l-15,12.87,2.11,6.68.81,2.55L469,154.61l-4.27,99.07" transform="translate(-57.67 -18.1)" fill="none" stroke="#000" stroke-linecap="round" stroke-linejoin="round"/><line x1="417.92" y1="117.9" x2="417.92" y2="120.97" fill="none" stroke="#000" stroke-linecap="round" stroke-linejoin="round"/><path d="M455.56,158.94a133.56,133.56,0,0,0-8.86,17.8,58.05,58.05,0,0,0-2.53,7.7,22.68,22.68,0,0,0-.73,6.71c.86,10.84,8.87,13.38,8.87,13.38l-.19,21.65-.2,24.5s4.24,2.56,12.7,3.65c7.71,1,18.91.79,33.62-3.64h0" transform="translate(-57.67 -18.1)" fill="none" stroke="#000" stroke-linecap="round" stroke-linejoin="round"/><polyline points="394.46 208.08 361.86 167.4 365.1 164.16 372.92 156.35 374.29 154.97 386.51 166.34 386.52 166.35" fill="none" stroke="#000" stroke-linecap="round" stroke-linejoin="round"/><path d="M423.22,182.28h-.46a42,42,0,0,1-13.89-2.59,6.93,6.93,0,0,1-3.94-2.75,4.55,4.55,0,0,1-.53-2.07,7.52,7.52,0,0,1,.22-2.06,12.14,12.14,0,0,1,2-4.31,2.6,2.6,0,0,1,2.18-1.33c.83.09,1.4.85,1.87,1.55l1.77,2.66a10.68,10.68,0,0,1,3.9-7.38c.57-.46,1.36-.88,2-.51a2,2,0,0,1,.74,1.54,30,30,0,0,1,.26,3.67,10.16,10.16,0,0,1,2.92-3.2,2.26,2.26,0,0,1,2.19-.47,2.32,2.32,0,0,1,.88,2.18,19,19,0,0,1-.1,2,18.41,18.41,0,0,1-1.86,6.41" transform="translate(-57.67 -18.1)" fill="none" stroke="#000" stroke-linecap="round" stroke-linejoin="round"/><path d="M430.52,174.38a2.33,2.33,0,0,0-.94-1.63,34.89,34.89,0,0,0-4.31-3.55" transform="translate(-57.67 -18.1)" fill="none" stroke="#000" stroke-linecap="round" stroke-linejoin="round"/><path d="M504.12,235.4s-5.36,6.91-5.88,15.29a18.68,18.68,0,0,0,0,3c.83,9.65,3,16.5,5.41,1.13,0,0,.21,7.88-.07,11.45s-3.13,9-2.45,10.73,3-.49,3-.49-.17,2.44,1.82,1.17a3.83,3.83,0,0,0,2-2.94s2.15.39,3.25-4.79c.7-3.33,1.86-11.15,2.6-16.34.41-2.91.69-5,.69-5" transform="translate(-57.67 -18.1)" fill="none" stroke="#000" stroke-linecap="round" stroke-linejoin="round"/><polyline points="454.02 168.54 446.25 193.77 450.13 207.12" fill="none" stroke="#000" stroke-linecap="round" stroke-linejoin="round"/><polyline points="502.02 432.97 493.62 437.87 440.52 346.9 432.86 319.07" fill="none" stroke="#000" stroke-linecap="round" stroke-linejoin="round"/><path d="M519.17,252.74S533.76,289,531.51,358.22L575,442.13l-3,1.77-12.29,7.16" transform="translate(-57.67 -18.1)" fill="none" stroke="#000" stroke-linecap="round" stroke-linejoin="round"/><polyline points="427.4 319.02 420.44 448.04 417.89 448.04 394.46 448.04 394.46 318.71" fill="none" stroke="#000" stroke-linecap="round" stroke-linejoin="round"/><path d="M408.8,167.16s2.53-5.41,7.54-3.17" transform="translate(-57.67 -18.1)" fill="none" stroke="#000" stroke-linecap="round" stroke-linejoin="round"/><path d="M378.71,154.92a14.51,14.51,0,0,1-2.25.56,19.83,19.83,0,0,1-8.69-.68,32,32,0,0,1-14.72-9.57,31.15,31.15,0,0,1-7.41-14.08,24,24,0,0,1,.31-11.34,19,19,0,0,1,9.34-10.61" transform="translate(-57.67 -18.1)" fill="none" stroke="#000" stroke-linecap="round" stroke-linejoin="round"/><path d="M355.29,109.2a17.86,17.86,0,0,1,4.28-1.51,10.82,10.82,0,0,1,4.77,0,6.09,6.09,0,0,1,3.82,2.73,8.72,8.72,0,0,1,.87,2.76c.6,3.28.72,6.65,1.61,9.85,1.83,6.65,6.66,12,11.42,17,1.93,2,4,4.37,3.9,7.17a7.07,7.07,0,0,1-1.9,4.28,12.24,12.24,0,0,1-5.34,3.48" transform="translate(-57.67 -18.1)" fill="none" stroke="#000" stroke-linecap="round" stroke-linejoin="round"/><path d="M394.34,178.53a6.65,6.65,0,0,1-2.17,2c-5.16,3.15-16.49,3.39-28.86.17-12.14-3.16-21.76-8.74-24.92-13.92a6.84,6.84,0,0,1-1.11-3.19,4.46,4.46,0,0,1,.13-1.42c1.59-6.11,15.76-7.7,31.66-3.56S396.55,171,395,177.14" transform="translate(-57.67 -18.1)" fill="none" stroke="#000" stroke-linecap="round" stroke-linejoin="round"/><path d="M394.89,177.4a4.88,4.88,0,0,1-.54,1.13" transform="translate(-57.67 -18.1)" fill="none" stroke="#000" stroke-linecap="round" stroke-linejoin="round"/><path d="M337.27,163.57s-6.74,14.26,23.77,22.12c25.06,6.46,31.84-3.46,33.47-7.21a8.08,8.08,0,0,0,.38-1.08l.08-.26" transform="translate(-57.67 -18.1)" fill="none" stroke="#000" stroke-linecap="round" stroke-linejoin="round"/><polyline points="339.29 159.62 336.84 160.38 336.68 160.43 336.67 160.43" fill="none" stroke="#000" stroke-linecap="round" stroke-linejoin="round"/><path d="M473.09,160.68c-2.62,0-2.25,4,.35,4s2.25-4-.35-4" transform="translate(-57.67 -18.1)" fill="#ea4969"/><path d="M487.4,160.49c-2.61,0-2.24,4,.36,4s2.24-4-.36-4" transform="translate(-57.67 -18.1)" fill="#ea4969"/><path d="M472.9,177.06c-2.62,0-2.25,4.05.35,4.05s2.25-4.05-.35-4.05" transform="translate(-57.67 -18.1)" fill="#ea4969"/><path d="M486.84,176.69h-.12c-2.62,0-2.25,4.05.35,4.05h.12c2.62,0,2.25-4.05-.35-4.05" transform="translate(-57.67 -18.1)" fill="#ea4969"/><path d="M471.77,195.33c-2.62,0-2.25,4,.35,4s2.25-4-.35-4" transform="translate(-57.67 -18.1)" fill="#ea4969"/><path d="M486.46,195.9c-2.62,0-2.25,4,.35,4s2.25-4-.35-4" transform="translate(-57.67 -18.1)" fill="#ea4969"/><path d="M471.58,210.59c-2.61,0-2.24,4,.36,4s2.24-4-.36-4" transform="translate(-57.67 -18.1)" fill="#ea4969"/><path d="M486.27,211.72c-2.61,0-2.24,4.05.36,4.05s2.24-4.05-.36-4.05" transform="translate(-57.67 -18.1)" fill="#ea4969"/><path d="M471.2,227.35c-2.61,0-2.24,4.05.36,4.05s2.25-4.05-.36-4.05" transform="translate(-57.67 -18.1)" fill="#ea4969"/><path d="M484,226.6c-2.61,0-2.24,4.05.36,4.05s2.24-4.05-.36-4.05" transform="translate(-57.67 -18.1)" fill="#ea4969"/><path d="M470.64,241.29c-2.62,0-2.25,4.05.35,4.05s2.25-4.05-.35-4.05" transform="translate(-57.67 -18.1)" fill="#ea4969"/><path d="M483.26,240.54c-2.62,0-2.25,4.05.35,4.05s2.25-4.05-.35-4.05" transform="translate(-57.67 -18.1)" fill="#ea4969"/><path d="M473.41,111.56c.65,1.26.47,2.64-.4,3.1s-2.11-.2-2.76-1.46-.47-2.64.4-3.09,2.12.2,2.76,1.45" transform="translate(-57.67 -18.1)" fill="#221c33"/><path d="M462.68,116c.65,1.26.47,2.64-.41,3.1s-2.11-.2-2.76-1.46-.46-2.64.41-3.09,2.11.2,2.76,1.45" transform="translate(-57.67 -18.1)" fill="#221c33"/><path d="M460.77,110.84a1.06,1.06,0,0,0-.64-.41,1.16,1.16,0,0,0-.77.17,7,7,0,0,0-1.77,1.43,4.34,4.34,0,0,0-1.18,2.17,1,1,0,1,0,2,.37.85.85,0,0,1,0-.17,2.47,2.47,0,0,1,.24-.49,6.1,6.1,0,0,1,.74-.86,6.51,6.51,0,0,1,1.1-.79,1,1,0,0,0,.24-1.42" transform="translate(-57.67 -18.1)" fill="#221c33"/><path d="M473.89,107.11a1,1,0,0,0-.82-1.19,9.06,9.06,0,0,0-5.3,1.27,1,1,0,0,0-.24,1.42,1.05,1.05,0,0,0,1.42.24l.27-.16h0l.5-.23a7,7,0,0,1,1.09-.36h.08l.27,0a4.86,4.86,0,0,1,.55-.07,4.93,4.93,0,0,1,.55,0,1.22,1.22,0,0,1,.27,0h.15a1.05,1.05,0,0,0,.75-.17,1,1,0,0,0,.41-.64" transform="translate(-57.67 -18.1)" fill="#221c33"/><path d="M457.33,338.63q-1,48.17-2.09,96.35l-.6,27.38c0,1.31,2,1.12,2-.17l2.09-96.36.6-27.38c0-1.31-2-1.12-2,.18" transform="translate(-57.67 -18.1)" fill="#a32941"/><path d="M465.63,339.75q-.35,48.45-.68,96.9-.1,13.71-.2,27.4c0,1.31,2,1.12,2-.18q.35-48.45.68-96.9.09-13.7.19-27.4c0-1.31-2-1.12-2,.18" transform="translate(-57.67 -18.1)" fill="#a32941"/><path d="M477.05,339.46q-2.07,48-4.12,96.08l-1.15,26.8c-.06,1.3,2,1.11,2-.18q2.07-48,4.12-96.08l1.15-26.8c.06-1.3-2-1.11-2,.18" transform="translate(-57.67 -18.1)" fill="#a32941"/><path d="M555.51,448.68q-12.85-21.31-25.7-42.63-6.3-10.44-12.59-20.88c-3.92-6.5-8-12.95-11.34-19.75-3.65-7.34-6.49-15.12-7.21-23.34a1,1,0,0,0-2,.18c1.3,14.77,9.07,27.75,16.56,40.17q13,21.54,26,43.06l14.69,24.36c.67,1.12,2.33-.05,1.66-1.17" transform="translate(-57.67 -18.1)" fill="#a32941"/><path d="M562.54,445.55q-12.21-20.43-24.44-40.86c-7.73-12.92-15.91-25.69-22.84-39.07A123,123,0,0,1,506,343c-.36-1.25-2.26-.54-1.9.71,4,14.08,11.32,26.89,18.77,39.4q12.09,20.31,24.26,40.57,6.9,11.52,13.79,23c.67,1.13,2.32-.05,1.65-1.17" transform="translate(-57.67 -18.1)" fill="#a32941"/><path d="M570.11,443q-23.72-38-43.61-78.25-5.57-11.26-10.82-22.68c-.54-1.18-2.45-.49-1.91.71q18.76,40.71,41.43,79.48,6.46,11,13.25,21.91c.69,1.11,2.35-.06,1.66-1.17" transform="translate(-57.67 -18.1)" fill="#a32941"/><path d="M127.76,28.4a6.8,6.8,0,0,1,1.13-5.59,9.48,9.48,0,0,1,3.27-2.61,14.7,14.7,0,0,1,8-1.54,9.88,9.88,0,0,1,5,1.69c2.35,1.69,3.53,4.6,3.93,7.46a15.71,15.71,0,0,1,10.71-1.24c3.53,1,6.61,4,7,7.65a10.08,10.08,0,0,1-3.65,8.41,13.13,13.13,0,0,1,5.07,4.82,8.27,8.27,0,0,1,.73,6.82,6.06,6.06,0,0,1-5.35,4,7.64,7.64,0,0,1-5.12-2.44,2.7,2.7,0,0,0,.35-2.16c-1.39-4.9-15.92-16.61-20.3-19.66a7,7,0,0,0-7-.86l-.14-.3a6.77,6.77,0,0,1-3.58-4.44" transform="translate(-57.67 -18.1)" fill="#fff"/><path d="M188,113.64s18.55,55.6,15.56,59.49c-1.21,1.58-11,2.71-22.09,3.48h0l2.63,35.43V276H100.28l2.85-48.23c-1.63-3.58,2.3-4.5,2.3-4.5l-1.36-6.83c-1.14-.4-2.88-1.53-.73-4.38l2.09-26.48c-1.13.09-1.79.08-1.88-.07-.91-1.53-19-55.18-19-55.18-6.39-3.54,1-8.06,1-8.06s-3.06-.14-2.23-5.84,37.75-23.07,37.75-23.07a16.84,16.84,0,0,1,4.06-10.41c.53,4.69,2.6,9.35,8.9,12l5.31,4.48-.71,7.59,9.19-1.89,1.11-11.55a17.82,17.82,0,0,0,3.69-5.29l3.48,8.92,32,11.12,2.5,2.22c1.87,2.5-2.64,3.06-2.64,3.06" transform="translate(-57.67 -18.1)" fill="#fff"/><path d="M164.36,143.26s5.49-7.73,9.1-7.38a6.35,6.35,0,0,1,1,.18c2.46.67,1.84,2.67,1.84,2.67a12.47,12.47,0,0,1,2.42-.41,4.9,4.9,0,0,1,2.65.41c1.71,1,.77,4.53.77,4.53s2.61-.4,2.08,3.53c0,0,2,3.3-.83,5.84s-4.59,7.09-8.13,7.78-13.37,3.15-13.37,3.15L159,150.87Z" transform="translate(-57.67 -18.1)" fill="#f29b44"/><path d="M123.45,56.7c2.22,0,2.69,3.24,2.69,3.24-.1,3-.26,6.55-.47,9.88-7.07-2.15-4.45-13.1-2.22-13.12" transform="translate(-57.67 -18.1)" fill="#f29b44"/><path d="M174.51,135.28a33,33,0,0,1-6.4-2l4.1-30.19L175.89,76s2.85,5.35,7.86,5.49,8.41-4,8.41-4l-4.43,30.8-.75,5.19-3.16,22a18,18,0,0,1-4.73.4,28.21,28.21,0,0,1-4.58-.58" transform="translate(-57.67 -18.1)" fill="#e5b52e"/><path d="M129.25,52.36l-1.17,20.48s.83,2.65,5.07,1.26,11.61-2.54,15.5,2.43c0,0,2.71.76,3.82-2.43l4.08-19.33c1.22.61,1.9,1,1.9,1s-.75,4.34-1.42,8.85c-.4,2.72-.77,5.5-.93,7.41,0,.65-.08,1.2-.08,1.62a39.33,39.33,0,0,1-3.4,14.62,17.82,17.82,0,0,1-3.69,5.29c-2.57,2.45-6,3.76-10.7,2.7A25.35,25.35,0,0,1,134,95c-6.3-2.69-8.37-7.35-8.9-12a47.08,47.08,0,0,1,.26-9.42c.1-1.16.19-2.41.28-3.7.21-3.33.37-6.9.47-9.88s.12-5.27.06-6.28a31.69,31.69,0,0,1,3-1.3" transform="translate(-57.67 -18.1)" fill="#221c33"/><path d="M178.73,138.32a12.47,12.47,0,0,0-2.42.41s.62-2-1.84-2.67l0-.78a28.21,28.21,0,0,0,4.58.58v0Z" transform="translate(-57.67 -18.1)" fill="#e0a000"/><path d="M204.25,469.28H153.72l-.14,0A61.79,61.79,0,0,0,150,454.74h2.36l.38-9.59h15.33l19,12.46s16.4,1.53,17.14,11.67" transform="translate(-57.67 -18.1)" fill="#221c33"/><path d="M189.86,67.08l-2.09,8.09-.76,3a6.07,6.07,0,0,1-5.9-.63l.45-2.71L183,66.31c3.27-2.15,6.88.77,6.88.77" transform="translate(-57.67 -18.1)" fill="#e5b52e"/><path d="M187.78,75.17a19.39,19.39,0,0,1,4.38,2.33s-3.41,4.1-8.41,4S175.89,76,175.89,76a13.61,13.61,0,0,1,5.67-1.18l-.45,2.71a6.07,6.07,0,0,0,5.9.63l.76-3Z" transform="translate(-57.67 -18.1)" fill="#e0a000"/><path d="M139.33,218.17a258.33,258.33,0,0,0,44.76-6.12s4,64.22,3.2,74.78l-8.62-.09L159,286.52l-35.85-.39v-62l-17.73-.88-1.36-6.83a4.59,4.59,0,0,0,.8.21,173,173,0,0,0,34.46,1.53" transform="translate(-57.67 -18.1)" fill="#221c33"/><polygon points="121.01 268.64 121.01 268.73 110.45 427.05 95.12 427.05 101.35 268.42 121.01 268.64" fill="#ea4969"/><path d="M160.65,62.49c2.43,1.64-.86,9.85-4.55,9.59.16-1.91.53-4.69.93-7.41,0,0,1.19-3.83,3.62-2.18" transform="translate(-57.67 -18.1)" fill="#f29b44"/><polygon points="101.35 268.42 95.12 427.05 94.74 436.64 92.38 436.64 72.46 436.64 70.14 436.64 50.13 257.89 65.5 257.89 65.5 268.03 101.35 268.42" fill="#ea4969"/><path d="M156.55,54.77c-4.32-2.21-15.42-6.72-27.3-2.41a31.69,31.69,0,0,0-3,1.3s-2.29-1.94-2.36-3,6.6-16.89,6.6-16.89a5.53,5.53,0,0,1,1-.58,7,7,0,0,1,7,.86c4.38,3,18.91,14.76,20.3,19.66a2.7,2.7,0,0,1-.35,2.16s-.68-.44-1.9-1" transform="translate(-57.67 -18.1)" fill="#e2f2ef"/><path d="M156.55,54.77,152.47,74.1c-1.11,3.19-3.82,2.43-3.82,2.43-3.89-5-11.26-3.82-15.5-2.43s-5.07-1.26-5.07-1.26l1.17-20.48c11.88-4.31,23,.2,27.3,2.41" transform="translate(-57.67 -18.1)" fill="#f29b44"/><path d="M153.58,469.3a59.77,59.77,0,0,1,.45,10.27c-9.64,3.85-27.16.88-27.25-2.22s3.34-22.61,3.34-22.61H150a61.79,61.79,0,0,1,3.54,14.56" transform="translate(-57.67 -18.1)" fill="#221c33"/><path d="M148.93,93.61l-1.11,11.55-9.19,1.89.71-7.59L134,95a25.35,25.35,0,0,0,4.2,1.33c4.66,1.06,8.13-.25,10.7-2.7" transform="translate(-57.67 -18.1)" fill="#f29b44"/><path d="M143.27,57.88v14h-6.36c0-7.62,6.36-14,6.36-14" transform="translate(-57.67 -18.1)" fill="#cc711f"/><path d="M158.8,53.66a2.7,2.7,0,0,1-.35,2.16s-.68-.44-1.9-1c-4.32-2.21-15.42-6.72-27.3-2.41a31.69,31.69,0,0,0-3,1.3s-2.29-1.94-2.36-3,6.6-16.89,6.6-16.89" transform="translate(-57.67 -18.1)" fill="none" stroke="#000" stroke-linecap="round" stroke-linejoin="round"/><path d="M131.34,32.84a6.71,6.71,0,0,1-2.45-10,9.48,9.48,0,0,1,3.27-2.61,14.7,14.7,0,0,1,8-1.54,9.88,9.88,0,0,1,5,1.69c2.35,1.69,3.53,4.6,3.93,7.46a15.71,15.71,0,0,1,10.71-1.24c3.53,1,6.61,4,7,7.65a10.08,10.08,0,0,1-3.65,8.41,13.13,13.13,0,0,1,5.07,4.82,8.27,8.27,0,0,1,.73,6.82,6.06,6.06,0,0,1-5.35,4,7.64,7.64,0,0,1-5.12-2.44" transform="translate(-57.67 -18.1)" fill="none" stroke="#000" stroke-linecap="round" stroke-linejoin="round"/><path d="M157,64.67s1.19-3.83,3.62-2.18-.86,9.85-4.55,9.59" transform="translate(-57.67 -18.1)" fill="none" stroke="#000" stroke-linecap="round" stroke-linejoin="round"/><path d="M126.14,59.94s-.47-3.27-2.69-3.24-4.85,11,2.22,13.12" transform="translate(-57.67 -18.1)" fill="none" stroke="#000" stroke-linecap="round" stroke-linejoin="round"/><path d="M136.69,180l9.38-1.88c10.24-2.08,18.29-3.78,18.29-3.78l-2.46-10.82L159,150.87l-.56-2.48L134,152.13l-17.35,2.65-.28-32.11" transform="translate(-57.67 -18.1)" fill="none" stroke="#000" stroke-linecap="round" stroke-linejoin="round"/><path d="M125.13,82.94a16.84,16.84,0,0,0-4.06,10.41s-36.91,17.37-37.75,23.07,2.23,5.84,2.23,5.84-7.37,4.52-1,8.06c0,0,18.07,53.65,19,55.18.09.15.75.16,1.88.07,4.87-.44,18.4-3,31.26-5.52" transform="translate(-57.67 -18.1)" fill="none" stroke="#000" stroke-linecap="round" stroke-linejoin="round"/><polyline points="76.37 76.88 81.68 81.36 80.97 88.95 80.94 89.29" fill="none" stroke="#000" stroke-linecap="round" stroke-linejoin="round"/><polyline points="91.27 75.51 90.16 87.06 80.97 88.95 71.95 90.81 76.37 134.03" fill="none" stroke="#000" stroke-linecap="round" stroke-linejoin="round"/><polyline points="79.03 161.94 79.03 161.95 81.67 200.07 81.68 200.2" fill="none" stroke="#000" stroke-linecap="round" stroke-linejoin="round"/><path d="M146.07,178.16s19.17-.4,35.39-1.55c11.13-.77,20.88-1.9,22.09-3.48,3-3.89-15.56-59.49-15.56-59.49s4.51-.56,2.64-3.06l-2.5-2.22" transform="translate(-57.67 -18.1)" fill="none" stroke="#000" stroke-linecap="round" stroke-linejoin="round"/><polyline points="94.96 70.21 94.96 70.22 98.44 79.14 114.55 84.95 114.62 84.98" fill="none" stroke="#000" stroke-linecap="round" stroke-linejoin="round"/><path d="M181.56,74.79l-.45,2.71a6.07,6.07,0,0,0,5.9.63l.76-3,2.09-8.09s-3.61-2.92-6.88-.77Z" transform="translate(-57.67 -18.1)" fill="none" stroke="#000" stroke-linecap="round" stroke-linejoin="round"/><path d="M187.78,75.17a19.39,19.39,0,0,1,4.38,2.33l-4.43,30.8-.75,5.19-3.16,22a18,18,0,0,1-4.73.4,28.21,28.21,0,0,1-4.58-.58,33,33,0,0,1-6.4-2l4.1-30.19L175.89,76a13.61,13.61,0,0,1,5.67-1.18" transform="translate(-57.67 -18.1)" fill="none" stroke="#000" stroke-linecap="round" stroke-linejoin="round"/><polyline points="121.01 120.63 121.07 120.22 121.43 117.78" fill="none" stroke="#000" stroke-linecap="round" stroke-linejoin="round"/><path d="M159,150.87l5.35-7.61s5.49-7.73,9.1-7.38a6.35,6.35,0,0,1,1,.18c2.46.67,1.84,2.67,1.84,2.67a12.47,12.47,0,0,1,2.42-.41,4.9,4.9,0,0,1,2.65.41c1.71,1,.77,4.53.77,4.53s2.61-.4,2.08,3.53c0,0,2,3.3-.83,5.84s-4.59,7.09-8.13,7.78-13.37,3.15-13.37,3.15" transform="translate(-57.67 -18.1)" fill="none" stroke="#000" stroke-linecap="round" stroke-linejoin="round"/><path d="M181.46,176.62l2.63,35.43a258.33,258.33,0,0,1-44.76,6.12,173,173,0,0,1-34.46-1.53,4.59,4.59,0,0,1-.8-.21c-1.14-.4-2.88-1.53-.73-4.38l2.09-26.48h0" transform="translate(-57.67 -18.1)" fill="none" stroke="#000" stroke-linecap="round" stroke-linejoin="round"/><path d="M104.07,216.43l1.36,6.83s-3.93.92-2.3,4.5L100.28,276h22.88" transform="translate(-57.67 -18.1)" fill="none" stroke="#000" stroke-linecap="round" stroke-linejoin="round"/><polyline points="50.13 257.89 70.14 436.64 72.46 436.64 92.38 436.64 94.74 436.64 95.12 427.05 101.35 268.42" fill="none" stroke="#000" stroke-linecap="round" stroke-linejoin="round"/><polyline points="121.01 268.73 110.45 427.05 95.12 427.05" fill="none" stroke="#000" stroke-linecap="round" stroke-linejoin="round"/><polyline points="116.85 117.17 116.85 117.18 116.81 117.96" fill="none" stroke="#000" stroke-linecap="round" stroke-linejoin="round"/><path d="M135.84,76.33l9.93,2.07s-1.67,3.65-6.26,2.51-3.67-4.58-3.67-4.58" transform="translate(-57.67 -18.1)" fill="#fff"/><path d="M137.1,114.94a2.52,2.52,0,0,0-2.28,2.71,2.56,2.56,0,0,0,2.71,2.27,2.5,2.5,0,0,0-.43-5" transform="translate(-57.67 -18.1)" fill="#ea4969"/><path d="M149.14,112.9a2.52,2.52,0,0,0-2.27,2.71,2.55,2.55,0,0,0,2.71,2.27,2.52,2.52,0,0,0,2.27-2.71,2.55,2.55,0,0,0-2.71-2.27" transform="translate(-57.67 -18.1)" fill="#ea4969"/><path d="M139,129a2.5,2.5,0,1,0,2.71,2.28A2.56,2.56,0,0,0,139,129" transform="translate(-57.67 -18.1)" fill="#ea4969"/><path d="M152.11,128.28a2.52,2.52,0,0,0-2.28,2.71,2.55,2.55,0,0,0,2.71,2.27,2.51,2.51,0,0,0,2.27-2.7,2.55,2.55,0,0,0-2.7-2.28" transform="translate(-57.67 -18.1)" fill="#ea4969"/><path d="M141,141.07a2.51,2.51,0,0,0-2.27,2.71,2.55,2.55,0,0,0,2.7,2.27,2.52,2.52,0,0,0,2.28-2.71,2.56,2.56,0,0,0-2.71-2.27" transform="translate(-57.67 -18.1)" fill="#ea4969"/><path d="M153.22,140.33A2.52,2.52,0,0,0,151,143a2.55,2.55,0,0,0,2.71,2.27,2.52,2.52,0,0,0,2.27-2.71,2.56,2.56,0,0,0-2.71-2.27" transform="translate(-57.67 -18.1)" fill="#ea4969"/><path d="M142.84,183.7a2.51,2.51,0,0,0-2.27,2.7,2.55,2.55,0,0,0,2.71,2.28,2.52,2.52,0,0,0,2.27-2.71,2.55,2.55,0,0,0-2.71-2.27" transform="translate(-57.67 -18.1)" fill="#ea4969"/><path d="M155.26,182.58a2.53,2.53,0,0,0-2.28,2.71,2.56,2.56,0,0,0,2.71,2.28,2.52,2.52,0,0,0,2.28-2.71,2.56,2.56,0,0,0-2.71-2.28" transform="translate(-57.67 -18.1)" fill="#ea4969"/><path d="M144.51,195.93a2.5,2.5,0,1,0,2.71,2.27,2.56,2.56,0,0,0-2.71-2.27" transform="translate(-57.67 -18.1)" fill="#ea4969"/><path d="M156.93,195.56a2.52,2.52,0,0,0-2.28,2.71,2.56,2.56,0,0,0,2.71,2.27,2.5,2.5,0,0,0-.43-5" transform="translate(-57.67 -18.1)" fill="#ea4969"/><path d="M145.06,210.2a2.52,2.52,0,0,0-2.27,2.71,2.55,2.55,0,0,0,2.71,2.27,2.52,2.52,0,0,0,2.27-2.71,2.55,2.55,0,0,0-2.71-2.27" transform="translate(-57.67 -18.1)" fill="#ea4969"/><path d="M156.93,208.72a2.51,2.51,0,0,0-2.28,2.7,2.56,2.56,0,0,0,2.71,2.28,2.5,2.5,0,0,0-.43-5" transform="translate(-57.67 -18.1)" fill="#ea4969"/><path d="M139,54.26a1,1,0,0,0-1.09-.91,13.5,13.5,0,0,0-5.14.94,1,1,0,0,0-.59,1.29,1,1,0,0,0,1.29.59,11.34,11.34,0,0,1,1.2-.41l.53-.14h0l.15,0,.27,0a13.24,13.24,0,0,1,2.44-.19,1,1,0,0,0,.91-1.08" transform="translate(-57.67 -18.1)" fill="#221c33"/><path d="M154,56.19a17.42,17.42,0,0,0-4.79-1.69,1,1,0,1,0-.36,2,8.77,8.77,0,0,1,1.13.25l.32.09h.07L151,57c.75.28,1.47.62,2.19,1a1,1,0,1,0,.85-1.81" transform="translate(-57.67 -18.1)" fill="#221c33"/><path d="M137.6,58.93c0,1.31-.75,2.37-1.68,2.37s-1.69-1.06-1.69-2.37.76-2.38,1.69-2.38,1.68,1.06,1.68,2.38" transform="translate(-57.67 -18.1)" fill="#221c33"/><path d="M151.34,61.3c0,1.31-.76,2.38-1.69,2.38S148,62.61,148,61.3s.75-2.37,1.68-2.37,1.69,1.06,1.69,2.37" transform="translate(-57.67 -18.1)" fill="#221c33"/><path d="M125.08,384.12q-3.66-32.69-6.45-65.45-1.56-18.42-2.86-36.87a1,1,0,0,0-2,.17q2.3,32.68,5.45,65.3t7.2,65.37q2.26,18.35,4.81,36.67c.18,1.27,2.17,1.1,2-.18q-4.52-32.44-8.16-65" transform="translate(-57.67 -18.1)" fill="#a32941"/><path d="M134.81,388.19q-2.37-31.11-4.2-62.26-1-17.62-1.89-35.25c-.06-1.29-2-1.11-2,.17q1.52,31.17,3.58,62.3T135,415.38q1.49,17.6,3.14,35.16a1,1,0,0,0,2-.17q-2.93-31.06-5.3-62.18" transform="translate(-57.67 -18.1)" fill="#a32941"/><path d="M142.31,386.63l-2-60.63-1.11-34.18c0-1.29-2-1.11-2,.17l2,60.88,2,60.64,1.11,34.18c0,1.29,2,1.11,2-.17q-1-30.45-2-60.89" transform="translate(-57.67 -18.1)" fill="#a32941"/><path d="M150.1,291.72q-.48,30.79-1,61.6l-1,61.35q-.27,17.32-.55,34.66c0,1.29,2,1.11,2-.17q.49-30.8,1-61.6t1-61.35q.27-17.32.55-34.66c0-1.29-2-1.1-2,.17" transform="translate(-57.67 -18.1)" fill="#a32941"/><path d="M164,295.07q-1.25,28.85-2.51,57.69t-2.51,57.69l-1.41,32.46c-.05,1.29,1.94,1.1,2-.17q1.26-28.85,2.51-57.69t2.51-57.69q.71-16.23,1.42-32.46c0-1.28-1.94-1.1-2,.17" transform="translate(-57.67 -18.1)" fill="#a32941"/><path d="M171.17,294q-1,29-2.52,57.94t-3.53,57.92Q164,426.1,162.7,442.37c-.1,1.27,1.87,1.64,2,.36q2.29-29,4.1-58.13t3.08-58q.74-16.42,1.31-32.85c0-1.28-1.95-1.1-2,.18" transform="translate(-57.67 -18.1)" fill="#a32941"/></g></svg>